<svg width="718" height="796" viewBox="0 0 718 796" fill="none" xmlns="http://www.w3.org/2000/svg">
<g filter="url(#filter0_d_0_341)">
<rect x="109" y="681.214" width="314.73" height="499.311" rx="17.453" transform="rotate(-90 109 681.214)" fill="url(#paint0_linear_0_341)"/>
</g>
<path d="M522.05 435.495H514.135L519.082 404.553H526.998L522.05 435.495ZM507.477 404.553L499.931 425.835L499.038 421.252L499.039 421.254L496.376 407.339C496.376 407.339 496.054 404.553 492.621 404.553H480.146L480 405.077C480 405.077 483.815 405.885 488.279 408.613L495.156 435.495H503.403L515.995 404.553H507.477ZM569.732 435.495H577L570.663 404.552H564.301C561.363 404.552 560.647 406.858 560.647 406.858L548.843 435.495H557.093L558.743 430.898H568.805L569.732 435.495ZM561.023 424.549L565.182 412.97L567.521 424.549H561.023ZM549.461 411.994L550.591 405.349C550.591 405.349 547.105 404 543.472 404C539.544 404 530.217 405.747 530.217 414.243C530.217 422.237 541.164 422.336 541.164 426.535C541.164 430.734 531.345 429.981 528.104 427.334L526.927 434.281C526.927 434.281 530.461 436.028 535.861 436.028C541.263 436.028 549.411 433.182 549.411 425.435C549.411 417.39 538.365 416.641 538.365 413.143C538.366 409.645 546.074 410.094 549.461 411.994Z" fill="url(#paint1_linear_0_341)"/>
<g filter="url(#filter1_i_0_341)">
<rect x="153.715" y="463.768" width="66.2844" height="47.4152" rx="8.46699" fill="url(#paint2_linear_0_341)"/>
<rect x="153.715" y="463.768" width="66.2844" height="47.4152" rx="8.46699" fill="#FFC700" fill-opacity="0.27"/>
</g>
<path d="M153.639 480.179H176.179C177.606 475.796 181.618 466.765 186.252 465.704C187.973 466.307 191.994 468.478 194.311 472.338M153.639 495.379H176.179C176.179 502.906 182.894 508.406 186.252 510.216C191.894 508.382 196.242 499.56 197.711 495.379H219.999M219.999 483.798H197.711C196.704 481.908 195.294 477.55 197.711 475.233" stroke="url(#paint3_linear_0_341)" stroke-width="0.725742"/>
<path fill-rule="evenodd" clip-rule="evenodd" d="M568.472 607.967C569.374 607.471 570.508 607.8 571.004 608.703C574.033 614.217 578.163 628.613 571.044 643.136C570.59 644.06 569.473 644.442 568.549 643.989C567.624 643.536 567.242 642.419 567.695 641.494C574.137 628.354 570.356 615.268 567.735 610.499C567.24 609.596 567.569 608.463 568.472 607.967ZM561.408 611.158C562.327 610.693 563.448 611.06 563.914 611.979C566.277 616.644 569.561 628.642 563.918 639.928C563.458 640.849 562.338 641.223 561.417 640.762C560.496 640.301 560.122 639.182 560.583 638.26C565.516 628.393 562.631 617.7 560.587 613.664C560.122 612.745 560.489 611.623 561.408 611.158ZM554.771 615.239C555.683 614.76 556.81 615.11 557.29 616.021C558.249 617.844 559.339 620.948 559.658 624.561C559.979 628.19 559.529 632.448 557.262 636.453C556.755 637.349 555.617 637.665 554.721 637.157C553.825 636.65 553.51 635.512 554.017 634.616C555.818 631.434 556.217 627.98 555.944 624.889C555.669 621.781 554.725 619.155 553.99 617.758C553.51 616.847 553.86 615.719 554.771 615.239ZM547.276 619.158C548.176 618.658 549.311 618.982 549.812 619.882C550.487 621.097 551.252 623.103 551.478 625.366C551.705 627.642 551.397 630.343 549.699 632.72C549.1 633.558 547.936 633.752 547.098 633.153C546.26 632.555 546.066 631.39 546.664 630.552C547.678 629.133 547.936 627.427 547.767 625.736C547.597 624.032 547.007 622.513 546.552 621.693C546.052 620.793 546.376 619.658 547.276 619.158Z" fill="#23CE6B"/>
<path d="M326.512 623.504L330.817 610.696H327.897L324.968 620.743H324.906L321.977 610.696H318.977L323.282 623.504H326.512ZM339.133 623.504H341.982L337.526 610.696H334.376L329.929 623.504H332.681L333.657 620.397H338.157L339.133 623.504ZM335.876 613.146H335.938L337.58 618.391H334.234L335.876 613.146ZM351.576 621.285H345.976V610.696H343.295V623.504H351.576V621.285ZM355.845 623.504V610.696H353.165V623.504H355.845ZM357.975 610.696V623.504H362.866C366.709 623.504 368.972 621.116 368.972 617.051C368.972 612.986 366.709 610.696 362.866 610.696H357.975ZM360.656 612.906H362.546C364.907 612.906 366.238 614.38 366.238 617.06C366.238 619.829 364.942 621.285 362.546 621.285H360.656V612.906Z" fill="#9D9DA8"/>
<path d="M159.844 621.706C162.706 621.706 164.703 620.057 164.977 617.454H162.601C162.342 618.836 161.299 619.685 159.852 619.685C157.985 619.685 156.813 618.149 156.813 615.659C156.813 613.202 158.001 611.658 159.844 611.658C161.267 611.658 162.366 612.595 162.593 614.026H164.969C164.783 611.415 162.649 609.637 159.844 609.637C156.465 609.637 154.323 611.908 154.323 615.667C154.323 619.434 156.449 621.706 159.844 621.706ZM173.724 621.504H176.319L172.261 609.839H169.391L165.341 621.504H167.847L168.736 618.674H172.835L173.724 621.504ZM170.757 612.07H170.814L172.309 616.847H169.262L170.757 612.07ZM179.956 611.747H182.034C183.247 611.747 184.006 612.474 184.006 613.606C184.006 614.762 183.287 615.465 182.058 615.465H179.956V611.747ZM179.956 617.235H181.913L184.087 621.504H186.852L184.394 616.872C185.736 616.346 186.512 615.053 186.512 613.557C186.512 611.253 184.976 609.839 182.293 609.839H177.515V621.504H179.956V617.235ZM188.121 609.839V621.504H192.575C196.075 621.504 198.137 619.329 198.137 615.627C198.137 611.924 196.075 609.839 192.575 609.839H188.121ZM190.562 611.852H192.284C194.434 611.852 195.647 613.194 195.647 615.635C195.647 618.157 194.467 619.483 192.284 619.483H190.562V611.852ZM213.132 621.504V609.839H210.691V614.576H205.436V609.839H202.995V621.504H205.436V616.589H210.691V621.504H213.132ZM220.335 609.637C216.875 609.637 214.708 611.957 214.708 615.675C214.708 619.386 216.875 621.706 220.335 621.706C223.786 621.706 225.961 619.386 225.961 615.675C225.961 611.957 223.786 609.637 220.335 609.637ZM220.335 611.674C222.242 611.674 223.463 613.226 223.463 615.675C223.463 618.116 222.242 619.66 220.335 619.66C218.419 619.66 217.198 618.116 217.198 615.675C217.198 613.226 218.427 611.674 220.335 611.674ZM235.079 619.483H229.978V609.839H227.537V621.504H235.079V619.483ZM236.526 609.839V621.504H240.98C244.481 621.504 246.542 619.329 246.542 615.627C246.542 611.924 244.481 609.839 240.98 609.839H236.526ZM238.967 611.852H240.689C242.84 611.852 244.052 613.194 244.052 615.635C244.052 618.157 242.872 619.483 240.689 619.483H238.967V611.852ZM255.846 619.483H250.559V616.54H255.547V614.665H250.559V611.852H255.846V609.839H248.118V621.504H255.846V619.483ZM260.05 611.747H262.127C263.34 611.747 264.1 612.474 264.1 613.606C264.1 614.762 263.38 615.465 262.152 615.465H260.05V611.747ZM260.05 617.235H262.006L264.181 621.504H266.945L264.488 616.872C265.83 616.346 266.606 615.053 266.606 613.557C266.606 611.253 265.07 609.839 262.386 609.839H257.608V621.504H260.05V617.235Z" fill="#9D9DA8"/>
<path d="M421.095 623.725C424.237 623.725 426.429 621.915 426.731 619.057H424.121C423.837 620.575 422.692 621.507 421.104 621.507C419.053 621.507 417.766 619.82 417.766 617.087C417.766 614.389 419.071 612.693 421.095 612.693C422.657 612.693 423.864 613.723 424.112 615.294H426.722C426.518 612.427 424.174 610.475 421.095 610.475C417.385 610.475 415.033 612.969 415.033 617.096C415.033 621.231 417.367 623.725 421.095 623.725ZM434.931 623.504L439.236 610.696H436.316L433.387 620.743H433.325L430.396 610.696H427.396L431.701 623.504H434.931ZM447.268 623.504L451.573 610.696H448.653L445.724 620.743H445.662L442.733 610.696H439.733L444.037 623.504H447.268Z" fill="#9D9DA8"/>
<path d="M325.394 641.337L326.095 640.121L324.116 639.012L326.095 637.885L325.403 636.66L323.521 637.805L323.619 635.719H322.012L322.11 637.796L320.22 636.66L319.536 637.885L321.506 639.003L319.536 640.112L320.22 641.337L322.11 640.201L322.004 642.287H323.619L323.521 640.201L325.394 641.337ZM333.825 641.337L334.527 640.121L332.547 639.012L334.527 637.885L333.834 636.66L331.953 637.805L332.05 635.719H330.444L330.542 637.796L328.651 636.66L327.968 637.885L329.938 639.003L327.968 640.112L328.651 641.337L330.542 640.201L330.435 642.287H332.05L331.953 640.201L333.825 641.337ZM341.325 651.277L345.869 635.719H343.482L338.929 651.277H341.325ZM356.138 641.337L356.839 640.121L354.86 639.012L356.839 637.885L356.147 636.66L354.265 637.805L354.363 635.719H352.757L352.854 637.796L350.964 636.66L350.28 637.885L352.251 639.003L350.28 640.112L350.964 641.337L352.854 640.201L352.748 642.287H354.363L354.265 640.201L356.138 641.337ZM364.57 641.337L365.271 640.121L363.292 639.012L365.271 637.885L364.579 636.66L362.697 637.805L362.795 635.719H361.188L361.286 637.796L359.395 636.66L358.712 637.885L360.682 639.003L358.712 640.112L359.395 641.337L361.286 640.201L361.179 642.287H362.795L362.697 640.201L364.57 641.337Z" fill="#696974"/>
<path d="M153.967 643.09C153.967 645.322 155.528 646.769 157.912 646.769C160.41 646.769 161.897 645.354 161.897 642.872V634.861H159.456V642.856C159.456 644.028 158.907 644.659 157.888 644.659C156.966 644.659 156.352 644.036 156.336 643.09H153.967ZM167.71 646.712C170.329 646.712 172.002 645.039 172.002 642.185C172.002 639.372 170.305 637.674 167.71 637.674C165.115 637.674 163.417 639.38 163.417 642.185C163.417 645.031 165.091 646.712 167.71 646.712ZM167.71 644.909C166.546 644.909 165.81 643.931 165.81 642.193C165.81 640.471 166.562 639.477 167.71 639.477C168.858 639.477 169.601 640.471 169.601 642.193C169.601 643.931 168.866 644.909 167.71 644.909ZM173.279 646.526H175.64V641.579C175.64 640.439 176.295 639.655 177.41 639.655C178.485 639.655 179.035 640.334 179.035 641.45V646.526H181.395V640.948C181.395 638.944 180.296 637.699 178.372 637.699C177.054 637.699 176.109 638.313 175.648 639.404H175.599V634.861H173.279V646.526ZM182.907 646.526H185.267V641.555C185.267 640.431 185.938 639.655 186.997 639.655C188.056 639.655 188.59 640.302 188.59 641.433V646.526H190.95V640.94C190.95 638.911 189.867 637.699 187.943 637.699C186.609 637.699 185.696 638.329 185.235 639.404H185.187V637.86H182.907V646.526ZM195.93 634.861V646.526H200.384C203.884 646.526 205.946 644.352 205.946 640.649C205.946 636.947 203.884 634.861 200.384 634.861H195.93ZM198.371 636.874H200.093C202.243 636.874 203.456 638.216 203.456 640.657C203.456 643.179 202.276 644.505 200.093 644.505H198.371V636.874ZM211.297 646.712C213.916 646.712 215.589 645.039 215.589 642.185C215.589 639.372 213.892 637.674 211.297 637.674C208.702 637.674 207.005 639.38 207.005 642.185C207.005 645.031 208.678 646.712 211.297 646.712ZM211.297 644.909C210.133 644.909 209.397 643.931 209.397 642.193C209.397 640.471 210.149 639.477 211.297 639.477C212.445 639.477 213.189 640.471 213.189 642.193C213.189 643.931 212.453 644.909 211.297 644.909ZM220.698 639.42C221.749 639.42 222.469 640.18 222.517 641.288H218.839C218.92 640.205 219.664 639.42 220.698 639.42ZM222.549 643.875C222.331 644.537 221.668 644.966 220.803 644.966C219.599 644.966 218.815 644.117 218.815 642.88V642.735H224.789V642.015C224.789 639.38 223.196 637.674 220.674 637.674C218.112 637.674 216.495 639.469 216.495 642.234C216.495 645.006 218.095 646.712 220.763 646.712C222.905 646.712 224.457 645.572 224.716 643.875H222.549Z" fill="#696974"/>
<path d="M421.033 641.337L421.734 640.121L419.755 639.012L421.734 637.885L421.041 636.66L419.16 637.805L419.258 635.719H417.651L417.749 637.796L415.858 636.66L415.175 637.885L417.145 639.003L415.175 640.112L415.858 641.337L417.749 640.201L417.642 642.287H419.258L419.16 640.201L421.033 641.337ZM429.464 641.337L430.165 640.121L428.186 639.012L430.165 637.885L429.473 636.66L427.591 637.805L427.689 635.719H426.083L426.18 637.796L424.29 636.66L423.606 637.885L425.577 639.003L423.606 640.112L424.29 641.337L426.18 640.201L426.074 642.287H427.689L427.591 640.201L429.464 641.337ZM437.896 641.337L438.597 640.121L436.618 639.012L438.597 637.885L437.905 636.66L436.023 637.805L436.121 635.719H434.514L434.612 637.796L432.721 636.66L432.038 637.885L434.008 639.003L432.038 640.112L432.721 641.337L434.612 640.201L434.505 642.287H436.121L436.023 640.201L437.896 641.337Z" fill="#696974"/>
<path d="M154.998 411.572V427.922H158.42V422.767H161.479C164.924 422.767 167.314 420.523 167.314 417.17C167.314 413.804 165.003 411.572 161.649 411.572H154.998ZM158.42 414.28H160.743C162.703 414.28 163.836 415.323 163.836 417.181C163.836 419.05 162.691 420.093 160.731 420.093H158.42V414.28ZM183.55 427.922V411.572H180.129V418.212H172.764V411.572H169.342V427.922H172.764V421.033H180.129V427.922H183.55ZM194.337 427.922V421.815L200.036 411.572H196.365L192.694 418.552H192.614L188.955 411.572H185.227L190.915 421.815V427.922H194.337ZM200.625 423.254C200.727 426.336 203.321 428.205 207.219 428.205C211.309 428.205 213.813 426.177 213.813 422.982C213.813 420.501 212.306 419.107 208.851 418.416L207.117 418.065C205.191 417.679 204.398 417.056 204.398 416.048C204.398 414.847 205.531 414.054 207.219 414.054C208.941 414.054 210.154 414.892 210.267 416.286H213.496C213.439 413.283 211.037 411.289 207.219 411.289C203.582 411.289 200.976 413.272 200.976 416.263C200.976 418.699 202.574 420.263 205.837 420.909L207.559 421.248C209.61 421.668 210.38 422.279 210.38 423.356C210.38 424.557 209.134 425.441 207.31 425.441C205.451 425.441 204.069 424.625 203.854 423.254H200.625ZM219.331 427.922V411.572H215.909V427.922H219.331ZM229.279 428.205C233.29 428.205 236.088 425.894 236.473 422.245H233.142C232.78 424.183 231.318 425.373 229.29 425.373C226.673 425.373 225.03 423.22 225.03 419.73C225.03 416.286 226.696 414.122 229.279 414.122C231.273 414.122 232.814 415.436 233.131 417.441H236.462C236.202 413.782 233.21 411.289 229.279 411.289C224.543 411.289 221.54 414.473 221.54 419.741C221.54 425.021 224.52 428.205 229.279 428.205ZM248.733 427.922H252.37L246.682 411.572H242.66L236.983 427.922H240.496L241.742 423.956H247.486L248.733 427.922ZM244.575 414.7H244.654L246.75 421.396H242.478L244.575 414.7ZM264.618 425.089H257.468V411.572H254.047V427.922H264.618V425.089Z" fill="#9D9DA8"/>
<path d="M167.769 558.783L169.151 556.35L164.85 553.897L169.171 551.406L167.769 548.973L163.624 551.503L163.799 546.89H160.665L160.84 551.503L156.695 548.973L155.332 551.406L159.595 553.878L155.313 556.33L156.675 558.783L160.84 556.252L160.665 560.865H163.799L163.624 556.252L167.769 558.783ZM185.365 558.783L186.747 556.35L182.445 553.897L186.766 551.406L185.365 548.973L181.219 551.503L181.394 546.89H178.26L178.436 551.503L174.29 548.973L172.927 551.406L177.19 553.878L172.908 556.33L174.27 558.783L178.436 556.252L178.26 560.865H181.394L181.219 556.252L185.365 558.783ZM202.96 558.783L204.342 556.35L200.041 553.897L204.362 551.406L202.96 548.973L198.814 551.503L198.99 546.89H195.856L196.031 551.503L191.885 548.973L190.523 551.406L194.785 553.878L190.503 556.33L191.866 558.783L196.031 556.252L195.856 560.865H198.99L198.814 556.252L202.96 558.783ZM220.556 558.783L221.937 556.35L217.636 553.897L221.957 551.406L220.556 548.973L216.41 551.503L216.585 546.89H213.451L213.626 551.503L209.481 548.973L208.118 551.406L212.381 553.878L208.099 556.33L209.461 558.783L213.626 556.252L213.451 560.865H216.585L216.41 556.252L220.556 558.783ZM245.742 558.783L247.124 556.35L242.822 553.897L247.143 551.406L245.742 548.973L241.596 551.503L241.771 546.89H238.637L238.813 551.503L234.667 548.973L233.304 551.406L237.567 553.878L233.285 556.33L234.647 558.783L238.813 556.252L238.637 560.865H241.771L241.596 556.252L245.742 558.783ZM263.337 558.783L264.719 556.35L260.418 553.897L264.739 551.406L263.337 548.973L259.191 551.503L259.367 546.89H256.233L256.408 551.503L252.262 548.973L250.9 551.406L255.162 553.878L250.88 556.33L252.243 558.783L256.408 556.252L256.233 560.865H259.367L259.191 556.252L263.337 558.783ZM280.933 558.783L282.314 556.35L278.013 553.897L282.334 551.406L280.933 548.973L276.787 551.503L276.962 546.89H273.828L274.003 551.503L269.858 548.973L268.495 551.406L272.758 553.878L268.476 556.33L269.838 558.783L274.003 556.252L273.828 560.865H276.962L276.787 556.252L280.933 558.783ZM298.528 558.783L299.91 556.35L295.608 553.897L299.929 551.406L298.528 548.973L294.382 551.503L294.557 546.89H291.424L291.599 551.503L287.453 548.973L286.09 551.406L290.353 553.878L286.071 556.33L287.433 558.783L291.599 556.252L291.424 560.865H294.557L294.382 556.252L298.528 558.783ZM323.714 558.783L325.096 556.35L320.795 553.897L325.116 551.406L323.714 548.973L319.568 551.503L319.744 546.89H316.61L316.785 551.503L312.639 548.973L311.277 551.406L315.539 553.878L311.257 556.33L312.62 558.783L316.785 556.252L316.61 560.865H319.744L319.568 556.252L323.714 558.783ZM341.31 558.783L342.691 556.35L338.39 553.897L342.711 551.406L341.31 548.973L337.164 551.503L337.339 546.89H334.205L334.38 551.503L330.235 548.973L328.872 551.406L333.135 553.878L328.853 556.33L330.215 558.783L334.38 556.252L334.205 560.865H337.339L337.164 556.252L341.31 558.783ZM358.905 558.783L360.287 556.35L355.985 553.897L360.306 551.406L358.905 548.973L354.759 551.503L354.934 546.89H351.801L351.976 551.503L347.83 548.973L346.467 551.406L350.73 553.878L346.448 556.33L347.81 558.783L351.976 556.252L351.801 560.865H354.934L354.759 556.252L358.905 558.783ZM376.5 558.783L377.882 556.35L373.581 553.897L377.902 551.406L376.5 548.973L372.354 551.503L372.53 546.89H369.396L369.571 551.503L365.425 548.973L364.063 551.406L368.325 553.878L364.043 556.33L365.406 558.783L369.571 556.252L369.396 560.865H372.53L372.354 556.252L376.5 558.783ZM401.687 558.783L403.068 556.35L398.767 553.897L403.088 551.406L401.687 548.973L397.541 551.503L397.716 546.89H394.582L394.757 551.503L390.612 548.973L389.249 551.406L393.512 553.878L389.23 556.33L390.592 558.783L394.757 556.252L394.582 560.865H397.716L397.541 556.252L401.687 558.783ZM419.282 558.783L420.664 556.35L416.362 553.897L420.683 551.406L419.282 548.973L415.136 551.503L415.311 546.89H412.178L412.353 551.503L408.207 548.973L406.844 551.406L411.107 553.878L406.825 556.33L408.187 558.783L412.353 556.252L412.178 560.865H415.311L415.136 556.252L419.282 558.783ZM436.877 558.783L438.259 556.35L433.958 553.897L438.279 551.406L436.877 548.973L432.731 551.503L432.907 546.89H429.773L429.948 551.503L425.802 548.973L424.44 551.406L428.702 553.878L424.42 556.33L425.783 558.783L429.948 556.252L429.773 560.865H432.907L432.731 556.252L436.877 558.783ZM454.473 558.783L455.855 556.35L451.553 553.897L455.874 551.406L454.473 548.973L450.327 551.503L450.502 546.89H447.368L447.543 551.503L443.398 548.973L442.035 551.406L446.298 553.878L442.016 556.33L443.378 558.783L447.543 556.252L447.368 560.865H450.502L450.327 556.252L454.473 558.783Z" fill="#696974"/>
<g filter="url(#filter2_d_0_341)">
<rect x="109.283" y="336.825" width="309.825" height="491.528" rx="17.181" transform="rotate(-89.9153 109.283 336.825)" fill="url(#paint4_linear_0_341)"/>
</g>
<g filter="url(#filter3_i_0_341)">
<rect x="153.624" y="122.834" width="65.2505" height="46.6756" rx="8.33503" transform="rotate(0.0846841 153.624 122.834)" fill="url(#paint5_linear_0_341)"/>
<rect x="153.624" y="122.834" width="65.2505" height="46.6756" rx="8.33503" transform="rotate(0.0846841 153.624 122.834)" fill="#FFC700" fill-opacity="0.27"/>
</g>
<path d="M153.523 138.99L175.711 139.023C177.123 134.71 181.086 125.826 185.649 124.788C187.342 125.384 191.297 127.527 193.573 131.331M153.501 153.952L175.689 153.985C175.678 161.395 182.281 166.819 185.584 168.606C191.14 166.809 195.434 158.131 196.886 154.016L218.826 154.049M218.843 142.649L196.903 142.616C195.914 140.755 194.532 136.462 196.915 134.185" stroke="url(#paint6_linear_0_341)" stroke-width="0.714431"/>
<path fill-rule="evenodd" clip-rule="evenodd" d="M561.698 265.388C562.587 264.901 563.702 265.227 564.189 266.117C567.163 271.549 571.207 285.727 564.178 300.012C563.731 300.922 562.631 301.296 561.721 300.849C560.812 300.401 560.437 299.301 560.885 298.392C567.245 285.465 563.542 272.579 560.969 267.88C560.482 266.99 560.808 265.875 561.698 265.388ZM554.739 268.519C555.644 268.063 556.748 268.426 557.205 269.331C559.524 273.927 562.74 285.742 557.169 296.845C556.714 297.751 555.611 298.116 554.705 297.662C553.799 297.207 553.433 296.104 553.888 295.198C558.759 285.492 555.934 274.961 553.928 270.985C553.471 270.08 553.834 268.976 554.739 268.519ZM548.2 272.528C549.098 272.057 550.208 272.403 550.678 273.301C551.621 275.097 552.689 278.154 552.998 281.711C553.308 285.283 552.859 289.475 550.622 293.414C550.121 294.296 549.001 294.604 548.119 294.104C547.238 293.603 546.929 292.483 547.43 291.601C549.207 288.471 549.605 285.072 549.34 282.028C549.075 278.968 548.149 276.382 547.427 275.006C546.957 274.108 547.303 272.998 548.2 272.528ZM540.816 276.374C541.703 275.883 542.82 276.204 543.311 277.091C543.974 278.288 544.725 280.264 544.944 282.491C545.164 284.732 544.857 287.39 543.182 289.728C542.591 290.552 541.445 290.741 540.621 290.151C539.797 289.561 539.607 288.414 540.198 287.59C541.198 286.194 541.454 284.515 541.29 282.85C541.125 281.173 540.546 279.676 540.1 278.869C539.609 277.982 539.93 276.865 540.816 276.374Z" fill="white"/>
<path opacity="0.6" d="M323.489 280.596L327.745 267.995L324.87 267.991L321.973 277.877L321.911 277.877L319.043 267.982L316.09 267.978L320.309 280.592L323.489 280.596ZM335.913 280.615L338.717 280.619L334.35 268.005L331.248 268L326.853 280.601L329.561 280.605L330.527 277.549L334.956 277.555L335.913 280.615ZM332.721 270.414L332.783 270.414L334.391 275.58L331.097 275.575L332.721 270.414ZM348.165 278.449L342.652 278.44L342.668 268.017L340.029 268.013L340.01 280.621L348.162 280.633L348.165 278.449ZM352.365 280.639L352.383 268.032L349.745 268.028L349.726 280.635L352.365 280.639ZM354.48 268.035L354.461 280.642L359.276 280.649C363.059 280.655 365.29 278.308 365.296 274.306C365.302 270.305 363.077 268.047 359.294 268.042L354.48 268.035ZM357.115 270.214L358.976 270.217C361.3 270.22 362.609 271.672 362.605 274.311C362.601 277.037 361.323 278.468 358.964 278.465L357.103 278.462L357.115 270.214Z" fill="white"/>
<path opacity="0.6" d="M159.42 278.553C162.237 278.557 164.205 276.937 164.479 274.375L162.139 274.371C161.883 275.732 160.855 276.566 159.431 276.563C157.592 276.561 156.441 275.047 156.444 272.596C156.448 270.177 157.62 268.659 159.434 268.661C160.835 268.664 161.916 269.588 162.136 270.997L164.476 271.001C164.297 268.43 162.199 266.676 159.437 266.672C156.111 266.667 153.999 268.9 153.993 272.6C153.988 276.309 156.077 278.548 159.42 278.553ZM173.083 278.374L175.638 278.378L171.66 266.889L168.835 266.885L164.831 278.362L167.298 278.366L168.178 275.582L172.212 275.588L173.083 278.374ZM170.177 269.083L170.232 269.083L171.697 273.788L168.697 273.784L170.177 269.083ZM179.233 268.778L181.278 268.781C182.472 268.783 183.219 269.5 183.217 270.614C183.215 271.752 182.506 272.444 181.296 272.442L179.227 272.439L179.233 268.778ZM179.225 274.182L181.151 274.184L183.285 278.389L186.007 278.393L183.594 273.83C184.916 273.315 185.682 272.042 185.684 270.57C185.687 268.302 184.177 266.908 181.535 266.904L176.832 266.897L176.815 278.38L179.219 278.383L179.225 274.182ZM187.273 266.912L187.256 278.395L191.641 278.402C195.086 278.407 197.119 276.269 197.124 272.624C197.129 268.98 195.103 266.924 191.658 266.919L187.273 266.912ZM189.673 268.897L191.368 268.9C193.485 268.903 194.677 270.226 194.673 272.629C194.669 275.112 193.506 276.415 191.357 276.412L189.662 276.409L189.673 268.897ZM211.877 278.431L211.894 266.949L209.491 266.945L209.484 271.608L204.311 271.601L204.318 266.937L201.915 266.934L201.898 278.417L204.301 278.42L204.308 273.582L209.481 273.59L209.474 278.428L211.877 278.431ZM218.985 266.76C215.579 266.755 213.443 269.036 213.437 272.696C213.432 276.349 215.561 278.636 218.967 278.641C222.365 278.646 224.509 276.365 224.514 272.713C224.52 269.052 222.383 266.765 218.985 266.76ZM218.982 268.765C220.86 268.768 222.059 270.298 222.055 272.709C222.052 275.112 220.848 276.63 218.97 276.628C217.084 276.625 215.885 275.103 215.888 272.7C215.892 270.289 217.104 268.763 218.982 268.765ZM233.485 276.474L228.464 276.467L228.478 266.973L226.075 266.969L226.058 278.452L233.482 278.463L233.485 276.474ZM234.924 266.983L234.907 278.466L239.291 278.472C242.737 278.477 244.769 276.339 244.775 272.695C244.78 269.05 242.754 266.994 239.308 266.989L234.924 266.983ZM237.324 268.968L239.019 268.97C241.136 268.973 242.327 270.296 242.324 272.699C242.32 275.182 241.156 276.485 239.008 276.482L237.313 276.48L237.324 268.968ZM253.928 276.504L248.724 276.496L248.728 273.6L253.638 273.607L253.641 271.761L248.731 271.754L248.735 268.984L253.94 268.992L253.942 267.011L246.335 266.999L246.318 278.482L253.926 278.494L253.928 276.504ZM258.078 268.895L260.123 268.898C261.316 268.9 262.063 269.617 262.062 270.731C262.06 271.869 261.351 272.56 260.141 272.558L258.072 272.555L258.078 268.895ZM258.07 274.298L259.995 274.301L262.13 278.506L264.851 278.51L262.439 273.946C263.761 273.431 264.527 272.159 264.529 270.687C264.532 268.419 263.022 267.024 260.38 267.02L255.677 267.013L255.66 278.496L258.064 278.5L258.07 274.298Z" fill="white"/>
<path opacity="0.6" d="M416.597 280.952C419.69 280.957 421.851 279.178 422.152 276.365L419.583 276.361C419.302 277.855 418.173 278.77 416.609 278.768C414.591 278.765 413.327 277.103 413.33 274.412C413.334 271.756 414.621 270.089 416.613 270.092C418.151 270.095 419.338 271.11 419.58 272.657L422.149 272.66C421.952 269.838 419.648 267.913 416.616 267.908C412.964 267.903 410.645 270.354 410.639 274.417C410.633 278.488 412.928 280.947 416.597 280.952ZM430.219 280.754L434.475 268.153L431.6 268.149L428.702 278.035L428.641 278.035L425.773 268.14L422.819 268.136L427.038 280.749L430.219 280.754ZM442.363 280.772L446.619 268.171L443.745 268.167L440.847 278.053L440.786 278.052L437.917 268.158L434.964 268.154L439.183 280.767L442.363 280.772Z" fill="white"/>
<path d="M322.363 298.15L323.055 296.954L321.108 295.859L323.058 294.752L322.379 293.545L320.525 294.67L320.624 292.616L319.043 292.614L319.136 294.659L317.276 293.538L316.602 294.742L318.54 295.846L316.599 296.935L317.27 298.142L319.132 297.026L319.024 299.08L320.614 299.082L320.521 297.029L322.363 298.15ZM330.663 298.162L331.355 296.966L329.409 295.871L331.359 294.764L330.679 293.557L328.825 294.682L328.924 292.629L327.343 292.626L327.436 294.671L325.577 293.55L324.902 294.755L326.84 295.858L324.899 296.948L325.57 298.154L327.432 297.039L327.324 299.092L328.915 299.094L328.822 297.041L330.663 298.162ZM338.032 307.958L342.528 292.649L340.177 292.645L335.673 307.955L338.032 307.958ZM352.628 298.194L353.32 296.998L351.373 295.903L353.323 294.797L352.644 293.59L350.79 294.714L350.889 292.661L349.308 292.659L349.401 294.703L347.541 293.582L346.867 294.787L348.805 295.891L346.864 296.98L347.535 298.187L349.397 297.071L349.289 299.124L350.879 299.127L350.786 297.073L352.628 298.194ZM360.928 298.207L361.62 297.011L359.674 295.916L361.624 294.809L360.944 293.602L359.09 294.727L359.189 292.673L357.608 292.671L357.701 294.716L355.841 293.595L355.167 294.799L357.105 295.903L355.164 296.992L355.835 298.199L357.697 297.083L357.589 299.137L359.18 299.139L359.087 297.086L360.928 298.207Z" fill="white"/>
<path d="M153.603 299.595C153.599 301.791 155.133 303.218 157.481 303.221C159.939 303.225 161.406 301.835 161.409 299.392L161.421 291.506L159.018 291.502L159.006 299.372C159.004 300.526 158.462 301.146 157.46 301.144C156.553 301.143 155.949 300.529 155.934 299.598L153.603 299.595ZM167.125 303.18C169.704 303.184 171.353 301.539 171.357 298.73C171.362 295.961 169.693 294.287 167.139 294.283C164.584 294.28 162.911 295.956 162.906 298.717C162.902 301.519 164.547 303.176 167.125 303.18ZM167.128 301.405C165.982 301.404 165.259 300.44 165.262 298.729C165.264 297.034 166.006 296.056 167.136 296.058C168.266 296.06 168.997 297.039 168.994 298.734C168.992 300.445 168.266 301.407 167.128 301.405ZM172.608 303.005L174.932 303.009L174.939 298.138C174.941 297.016 175.587 296.245 176.685 296.247C177.743 296.249 178.283 296.918 178.282 298.016L178.274 303.013L180.598 303.017L180.606 297.526C180.609 295.553 179.529 294.325 177.635 294.323C176.338 294.321 175.406 294.924 174.95 295.998L174.903 295.998L174.909 291.526L172.625 291.522L172.608 303.005ZM182.086 303.019L184.41 303.023L184.417 298.129C184.419 297.022 185.08 296.259 186.123 296.261C187.165 296.263 187.689 296.9 187.688 298.014L187.68 303.027L190.004 303.031L190.012 297.532C190.015 295.535 188.951 294.339 187.057 294.337C185.744 294.335 184.843 294.954 184.388 296.012L184.341 296.012L184.343 294.492L182.099 294.488L182.086 303.019ZM194.923 291.555L194.906 303.038L199.291 303.045C202.736 303.05 204.769 300.912 204.774 297.267C204.779 293.623 202.753 291.567 199.308 291.562L194.923 291.555ZM197.323 293.54L199.018 293.543C201.135 293.546 202.327 294.868 202.323 297.272C202.319 299.755 201.156 301.058 199.007 301.055L197.312 301.052L197.323 293.54ZM210.033 303.243C212.612 303.247 214.261 301.602 214.265 298.793C214.269 296.024 212.601 294.35 210.046 294.347C207.492 294.343 205.818 296.02 205.814 298.781C205.81 301.582 207.455 303.24 210.033 303.243ZM210.036 301.469C208.89 301.467 208.167 300.503 208.17 298.792C208.172 297.097 208.914 296.12 210.044 296.121C211.174 296.123 211.904 297.103 211.902 298.798C211.899 300.509 211.174 301.471 210.036 301.469ZM219.299 296.079C220.333 296.081 221.04 296.83 221.086 297.92L217.466 297.915C217.547 296.849 218.28 296.078 219.299 296.079ZM221.115 300.467C220.899 301.119 220.246 301.54 219.394 301.538C218.208 301.537 217.438 300.7 217.44 299.482L217.44 299.339L223.32 299.348L223.321 298.64C223.325 296.045 221.76 294.364 219.277 294.36C216.755 294.357 215.161 296.121 215.157 298.842C215.153 301.572 216.726 303.253 219.352 303.257C221.461 303.26 222.99 302.141 223.247 300.47L221.115 300.467Z" fill="white"/>
<path d="M416.51 298.29L417.202 297.094L415.255 295.999L417.205 294.892L416.525 293.685L414.671 294.81L414.77 292.757L413.189 292.754L413.282 294.799L411.423 293.678L410.748 294.882L412.686 295.986L410.745 297.075L411.416 298.282L413.279 297.167L413.171 299.22L414.761 299.222L414.668 297.169L416.51 298.29ZM424.81 298.302L425.502 297.106L423.555 296.011L425.505 294.904L424.825 293.698L422.971 294.822L423.071 292.769L421.489 292.767L421.582 294.811L419.723 293.69L419.048 294.895L420.986 295.998L419.045 297.088L419.716 298.294L421.579 297.179L421.471 299.232L423.061 299.234L422.968 297.181L424.81 298.302ZM433.11 298.314L433.802 297.118L431.855 296.023L433.805 294.917L433.126 293.71L431.272 294.834L431.371 292.781L429.789 292.779L429.882 294.823L428.023 293.702L427.349 294.907L429.287 296.011L427.345 297.1L428.016 298.307L429.879 297.191L429.771 299.244L431.361 299.247L431.268 297.193L433.11 298.314Z" fill="white"/>
<path d="M163.378 86.9032L168.811 70.8166L165.141 70.8111L161.442 83.4315L161.364 83.4314L157.702 70.8001L153.932 70.7946L159.318 86.8972L163.378 86.9032ZM173.806 86.9186L173.83 70.824L170.462 70.819L170.438 86.9136L173.806 86.9186ZM179.871 73.4652L182.738 73.4694C184.411 73.4719 185.458 74.4772 185.455 76.0387C185.453 77.6337 184.459 78.6026 182.764 78.6001L179.864 78.5958L179.871 73.4652ZM179.86 81.0384L182.559 81.0424L185.551 86.9359L189.365 86.9416L185.984 80.5456C187.837 79.8233 188.91 78.0403 188.913 75.9769C188.918 72.7982 186.802 70.8432 183.099 70.8377L176.507 70.8279L176.483 86.9225L179.851 86.9275L179.86 81.0384ZM198.333 86.9548L198.353 73.6375L203.015 73.6444L203.019 70.8671L190.337 70.8484L190.333 73.6256L194.984 73.6325L194.964 86.9498L198.333 86.9548ZM208.25 70.8749L204.881 70.8699L204.866 81.2761C204.861 84.823 207.478 87.2472 211.605 87.2533C215.721 87.2594 218.345 84.8429 218.351 81.2961L218.366 70.8898L214.998 70.8848L214.983 80.9565C214.98 83.0199 213.762 84.3677 211.609 84.3645C209.446 84.3613 208.232 83.0099 208.235 80.9465L208.25 70.8749ZM231.236 87.0034L234.816 87.0087L229.241 70.9059L225.281 70.9L219.67 86.9864L223.127 86.9915L224.36 83.0895L230.015 83.0979L231.236 87.0034ZM227.162 73.9812L227.24 73.9813L229.293 80.5761L225.089 80.5699L227.162 73.9812ZM246.877 84.2382L239.839 84.2278L239.859 70.9216L236.491 70.9166L236.467 87.0112L246.873 87.0266L246.877 84.2382Z" fill="white"/>
<path d="M167.316 215.964L168.68 213.571L164.449 211.151L168.707 208.704L167.331 206.307L163.246 208.792L163.425 204.251L160.34 204.247L160.506 208.788L156.428 206.291L155.084 208.684L159.276 211.124L155.057 213.532L156.395 215.948L160.499 213.463L160.32 218.004L163.405 218.009L163.239 213.467L167.316 215.964ZM184.638 215.99L186.001 213.597L181.771 211.176L186.028 208.73L184.652 206.333L180.567 208.818L180.746 204.277L177.661 204.272L177.827 208.814L173.749 206.317L172.405 208.71L176.597 211.15L172.378 213.558L173.716 215.974L177.82 213.489L177.641 218.03L180.726 218.034L180.56 213.493L184.638 215.99ZM201.959 216.015L203.323 213.622L199.092 211.202L203.349 208.756L201.973 206.359L197.888 208.843L198.067 204.303L194.982 204.298L195.148 208.839L191.071 206.342L189.726 208.736L193.918 211.175L189.699 213.583L191.037 215.999L195.141 213.515L194.962 218.055L198.047 218.06L197.881 213.519L201.959 216.015ZM219.28 216.041L220.644 213.648L216.413 211.228L220.67 208.781L219.294 206.384L215.209 208.869L215.388 204.328L212.303 204.324L212.469 208.865L208.392 206.368L207.047 208.761L211.239 211.201L207.021 213.609L208.358 216.025L212.462 213.54L212.283 218.081L215.368 218.085L215.202 213.544L219.28 216.041ZM244.073 216.078L245.437 213.685L241.206 211.264L245.464 208.818L244.088 206.421L240.003 208.906L240.182 204.365L237.097 204.36L237.263 208.902L233.185 206.405L231.841 208.798L236.033 211.237L231.814 213.645L233.152 216.062L237.256 213.577L237.077 218.118L240.162 218.122L239.996 213.581L244.073 216.078ZM261.395 216.103L262.758 213.71L258.528 211.29L262.785 208.844L261.409 206.446L257.324 208.931L257.503 204.39L254.418 204.386L254.584 208.927L250.506 206.43L249.162 208.823L253.354 211.263L249.135 213.671L250.473 216.087L254.577 213.602L254.398 218.143L257.483 218.148L257.317 213.606L261.395 216.103ZM278.716 216.129L280.08 213.736L275.849 211.315L280.106 208.869L278.73 206.472L274.645 208.957L274.824 204.416L271.739 204.412L271.905 208.953L267.828 206.456L266.483 208.849L270.675 211.289L266.456 213.697L267.794 216.113L271.898 213.628L271.719 218.169L274.804 218.173L274.638 213.632L278.716 216.129ZM296.037 216.155L297.401 213.761L293.17 211.341L297.427 208.895L296.051 206.498L291.966 208.982L292.145 204.442L289.06 204.437L289.226 208.978L285.149 206.482L283.804 208.875L287.996 211.314L283.778 213.722L285.115 216.138L289.219 213.654L289.04 218.194L292.125 218.199L291.959 213.658L296.037 216.155ZM320.83 216.191L322.194 213.798L317.963 211.378L322.221 208.931L320.845 206.534L316.76 209.019L316.939 204.478L313.854 204.474L314.02 209.015L309.942 206.518L308.598 208.911L312.79 211.351L308.571 213.759L309.909 216.175L314.013 213.69L313.834 218.231L316.919 218.236L316.753 213.694L320.83 216.191ZM338.152 216.217L339.515 213.824L335.285 211.403L339.542 208.957L338.166 206.56L334.081 209.045L334.26 204.504L331.175 204.499L331.341 209.041L327.263 206.544L325.919 208.937L330.111 211.376L325.892 213.784L327.23 216.201L331.334 213.716L331.155 218.257L334.24 218.261L334.074 213.72L338.152 216.217ZM355.473 216.242L356.837 213.849L352.606 211.429L356.863 208.983L355.487 206.585L351.402 209.07L351.581 204.53L348.496 204.525L348.662 209.066L344.585 206.569L343.24 208.962L347.432 211.402L343.213 213.81L344.551 216.226L348.655 213.741L348.476 218.282L351.561 218.287L351.395 213.745L355.473 216.242ZM372.794 216.268L374.158 213.875L369.927 211.454L374.184 209.008L372.808 206.611L368.723 209.096L368.902 204.555L365.817 204.551L365.983 209.092L361.906 206.595L360.561 208.988L364.753 211.428L360.535 213.836L361.872 216.252L365.976 213.767L365.797 218.308L368.882 218.312L368.716 213.771L372.794 216.268ZM397.587 216.305L398.951 213.912L394.72 211.491L398.978 209.045L397.602 206.648L393.517 209.133L393.696 204.592L390.611 204.587L390.777 209.129L386.699 206.632L385.355 209.025L389.547 211.464L385.328 213.872L386.666 216.288L390.77 213.804L390.591 218.344L393.676 218.349L393.51 213.808L397.587 216.305ZM414.909 216.33L416.272 213.937L412.042 211.517L416.299 209.07L414.923 206.673L410.838 209.158L411.017 204.617L407.932 204.613L408.098 209.154L404.02 206.657L402.676 209.05L406.868 211.49L402.649 213.898L403.987 216.314L408.091 213.829L407.912 218.37L410.997 218.375L410.831 213.833L414.909 216.33ZM432.23 216.356L433.594 213.963L429.363 211.542L433.62 209.096L432.244 206.699L428.159 209.184L428.338 204.643L425.253 204.638L425.419 209.18L421.342 206.683L419.997 209.076L424.189 211.515L419.97 213.923L421.308 216.34L425.412 213.855L425.233 218.396L428.318 218.4L428.152 213.859L432.23 216.356ZM449.551 216.381L450.915 213.988L446.684 211.568L450.941 209.122L449.565 206.725L445.48 209.209L445.659 204.669L442.574 204.664L442.74 209.205L438.663 206.708L437.318 209.102L441.51 211.541L437.292 213.949L438.629 216.365L442.733 213.88L442.554 218.421L445.639 218.426L445.473 213.885L449.551 216.381Z" fill="white"/>
<path d="M511.05 94.4945H503.135L508.082 63.5529H515.998L511.05 94.4945ZM496.477 63.5529L488.931 84.8348L488.038 80.252L488.039 80.2536L485.376 66.3389C485.376 66.3389 485.054 63.5529 481.621 63.5529H469.146L469 64.0768C469 64.0768 472.815 64.8846 477.279 67.6135L484.156 94.4953H492.403L504.995 63.5529H496.477ZM558.732 94.4945H566L559.663 63.5521H553.301C550.363 63.5521 549.647 65.858 549.647 65.858L537.843 94.4945H546.093L547.743 89.8985H557.805L558.732 94.4945ZM550.023 83.5494L554.182 71.9703L556.521 83.5494H550.023ZM538.461 70.9937L539.591 64.3491C539.591 64.3491 536.105 63 532.472 63C528.544 63 519.217 64.7473 519.217 73.2433C519.217 81.2369 530.164 81.3362 530.164 85.535C530.164 89.7337 520.345 88.9814 517.104 86.3337L515.927 93.2811C515.927 93.2811 519.461 95.0283 524.861 95.0283C530.263 95.0283 538.411 92.182 538.411 84.435C538.411 76.3901 527.365 75.641 527.365 72.1433C527.366 68.6447 535.074 69.0942 538.461 70.9937Z" fill="white"/>
<defs>
<filter id="filter0_d_0_341" x="0.206924" y="263.572" width="716.897" height="532.316" filterUnits="userSpaceOnUse" color-interpolation-filters="sRGB">
<feFlood flood-opacity="0" result="BackgroundImageFix"/>
<feColorMatrix in="SourceAlpha" type="matrix" values="0 0 0 0 0 0 0 0 0 0 0 0 0 0 0 0 0 0 127 0" result="hardAlpha"/>
<feOffset dy="5.88071"/>
<feGaussianBlur stdDeviation="54.3965"/>
<feComposite in2="hardAlpha" operator="out"/>
<feColorMatrix type="matrix" values="0 0 0 0 0.258823 0 0 0 0 0.145098 0 0 0 0 0.8 0 0 0 0.23 0"/>
<feBlend mode="normal" in2="BackgroundImageFix" result="effect1_dropShadow_0_341"/>
<feBlend mode="normal" in="SourceGraphic" in2="effect1_dropShadow_0_341" result="shape"/>
</filter>
<filter id="filter1_i_0_341" x="153.715" y="463.768" width="66.2845" height="47.4152" filterUnits="userSpaceOnUse" color-interpolation-filters="sRGB">
<feFlood flood-opacity="0" result="BackgroundImageFix"/>
<feBlend mode="normal" in="SourceGraphic" in2="BackgroundImageFix" result="shape"/>
<feColorMatrix in="SourceAlpha" type="matrix" values="0 0 0 0 0 0 0 0 0 0 0 0 0 0 0 0 0 0 127 0" result="hardAlpha"/>
<feOffset dx="-0.725742" dy="-0.725742"/>
<feComposite in2="hardAlpha" operator="arithmetic" k2="-1" k3="1"/>
<feColorMatrix type="matrix" values="0 0 0 0 0 0 0 0 0 0 0 0 0 0 0 0 0 0 0.25 0"/>
<feBlend mode="normal" in2="shape" result="effect1_innerShadow_0_341"/>
</filter>
<filter id="filter2_d_0_341" x="21.865" y="0.602608" width="666.822" height="485.387" filterUnits="userSpaceOnUse" color-interpolation-filters="sRGB">
<feFlood flood-opacity="0" result="BackgroundImageFix"/>
<feColorMatrix in="SourceAlpha" type="matrix" values="0 0 0 0 0 0 0 0 0 0 0 0 0 0 0 0 0 0 127 0" result="hardAlpha"/>
<feOffset dy="61.0207"/>
<feGaussianBlur stdDeviation="43.7218"/>
<feComposite in2="hardAlpha" operator="out"/>
<feColorMatrix type="matrix" values="0 0 0 0 0 0 0 0 0 0 0 0 0 0 0 0 0 0 0.1 0"/>
<feBlend mode="normal" in2="BackgroundImageFix" result="effect1_dropShadow_0_341"/>
<feBlend mode="normal" in="SourceGraphic" in2="effect1_dropShadow_0_341" result="shape"/>
</filter>
<filter id="filter3_i_0_341" x="153.567" y="122.846" width="65.2948" height="46.7473" filterUnits="userSpaceOnUse" color-interpolation-filters="sRGB">
<feFlood flood-opacity="0" result="BackgroundImageFix"/>
<feBlend mode="normal" in="SourceGraphic" in2="BackgroundImageFix" result="shape"/>
<feColorMatrix in="SourceAlpha" type="matrix" values="0 0 0 0 0 0 0 0 0 0 0 0 0 0 0 0 0 0 127 0" result="hardAlpha"/>
<feOffset dx="-0.714431" dy="-0.714431"/>
<feComposite in2="hardAlpha" operator="arithmetic" k2="-1" k3="1"/>
<feColorMatrix type="matrix" values="0 0 0 0 0 0 0 0 0 0 0 0 0 0 0 0 0 0 0.25 0"/>
<feBlend mode="normal" in2="shape" result="effect1_innerShadow_0_341"/>
</filter>
<linearGradient id="paint0_linear_0_341" x1="109" y1="681.214" x2="464.579" y2="707.595" gradientUnits="userSpaceOnUse">
<stop stop-color="white"/>
<stop offset="1" stop-color="white"/>
</linearGradient>
<linearGradient id="paint1_linear_0_341" x1="480" y1="404" x2="577" y2="436" gradientUnits="userSpaceOnUse">
<stop stop-color="#151B62"/>
<stop offset="1" stop-color="#00289D"/>
</linearGradient>
<linearGradient id="paint2_linear_0_341" x1="153.715" y1="463.768" x2="213.105" y2="511.184" gradientUnits="userSpaceOnUse">
<stop stop-color="#ABABAB"/>
<stop offset="0.3125" stop-color="white"/>
<stop offset="0.630208" stop-color="#BDBDBD"/>
<stop offset="1" stop-color="#5E5E5E"/>
</linearGradient>
<linearGradient id="paint3_linear_0_341" x1="156.134" y1="466.429" x2="215.524" y2="509.006" gradientUnits="userSpaceOnUse">
<stop stop-color="#7D7D7D"/>
<stop offset="0.494792" stop-color="white"/>
<stop offset="1" stop-color="#1C1C1C"/>
</linearGradient>
<linearGradient id="paint4_linear_0_341" x1="109.283" y1="336.825" x2="459.32" y2="362.794" gradientUnits="userSpaceOnUse">
<stop stop-color="#23CE6B"/>
<stop offset="1" stop-color="#1C9B51"/>
</linearGradient>
<linearGradient id="paint5_linear_0_341" x1="153.624" y1="122.834" x2="212.088" y2="169.51" gradientUnits="userSpaceOnUse">
<stop stop-color="#ABABAB"/>
<stop offset="0.3125" stop-color="white"/>
<stop offset="0.630208" stop-color="#BDBDBD"/>
<stop offset="1" stop-color="#5E5E5E"/>
</linearGradient>
<linearGradient id="paint6_linear_0_341" x1="155.999" y1="125.458" x2="214.401" y2="167.457" gradientUnits="userSpaceOnUse">
<stop stop-color="#7D7D7D"/>
<stop offset="0.494792" stop-color="white"/>
<stop offset="1" stop-color="#1C1C1C"/>
</linearGradient>
</defs>
</svg>
