<svg width="718" height="914" viewBox="0 0 718 914" fill="none" xmlns="http://www.w3.org/2000/svg">
<g filter="url(#filter0_d_0_310)">
<rect x="109.689" y="418.432" width="314.73" height="499.311" rx="17.453" transform="rotate(-90 109.689 418.432)" fill="url(#paint0_linear_0_310)"/>
</g>
<path d="M523.05 172.494H515.135L520.082 141.553H527.998L523.05 172.494ZM508.477 141.553L500.931 162.835L500.038 158.252L500.039 158.254L497.376 144.339C497.376 144.339 497.054 141.553 493.621 141.553H481.146L481 142.077C481 142.077 484.815 142.885 489.279 145.613L496.156 172.495H504.403L516.995 141.553H508.477ZM570.732 172.494H578L571.663 141.552H565.301C562.363 141.552 561.647 143.858 561.647 143.858L549.843 172.494H558.093L559.743 167.898H569.805L570.732 172.494ZM562.023 161.549L566.182 149.97L568.521 161.549H562.023ZM550.461 148.994L551.591 142.349C551.591 142.349 548.105 141 544.472 141C540.544 141 531.217 142.747 531.217 151.243C531.217 159.237 542.164 159.336 542.164 163.535C542.164 167.734 532.345 166.981 529.104 164.334L527.927 171.281C527.927 171.281 531.461 173.028 536.861 173.028C542.263 173.028 550.411 170.182 550.411 162.435C550.411 154.39 539.365 153.641 539.365 150.143C539.366 146.645 547.074 147.094 550.461 148.994Z" fill="url(#paint1_linear_0_310)"/>
<g filter="url(#filter1_i_0_310)">
<rect x="154.404" y="200.986" width="66.2844" height="47.4152" rx="8.46699" fill="url(#paint2_linear_0_310)"/>
<rect x="154.404" y="200.986" width="66.2844" height="47.4152" rx="8.46699" fill="#FFC700" fill-opacity="0.27"/>
</g>
<path d="M154.328 217.397H176.868C178.295 213.014 182.308 203.983 186.942 202.921C188.663 203.524 192.684 205.696 195.001 209.556M154.328 232.596H176.868C176.868 240.123 183.584 245.624 186.942 247.434C192.583 245.6 196.932 236.778 198.401 232.596H220.689M220.689 221.016H198.401C197.393 219.126 195.983 214.767 198.401 212.451" stroke="url(#paint3_linear_0_310)" stroke-width="0.725742"/>
<path fill-rule="evenodd" clip-rule="evenodd" d="M569.161 345.184C570.064 344.688 571.197 345.018 571.693 345.921C574.723 351.434 578.852 365.831 571.733 380.353C571.28 381.278 570.163 381.66 569.238 381.207C568.314 380.753 567.932 379.636 568.385 378.712C574.826 365.571 571.046 352.486 568.425 347.716C567.929 346.814 568.259 345.68 569.161 345.184ZM562.097 348.376C563.016 347.91 564.138 348.278 564.603 349.196C566.966 353.862 570.251 365.859 564.608 377.146C564.147 378.067 563.027 378.44 562.106 377.98C561.185 377.519 560.812 376.399 561.272 375.478C566.206 365.611 563.321 354.917 561.277 350.881C560.811 349.963 561.179 348.841 562.097 348.376ZM555.461 352.457C556.372 351.977 557.5 352.327 557.979 353.239C558.939 355.062 560.029 358.165 560.348 361.778C560.668 365.407 560.219 369.666 557.952 373.671C557.445 374.567 556.307 374.882 555.411 374.375C554.515 373.868 554.199 372.73 554.707 371.834C556.508 368.652 556.906 365.198 556.633 362.106C556.359 358.998 555.415 356.373 554.679 354.975C554.2 354.064 554.55 352.937 555.461 352.457ZM547.966 356.376C548.866 355.876 550.001 356.2 550.501 357.1C551.176 358.315 551.942 360.321 552.167 362.584C552.394 364.859 552.086 367.56 550.388 369.938C549.79 370.775 548.625 370.97 547.787 370.371C546.949 369.772 546.755 368.608 547.354 367.77C548.368 366.35 548.625 364.644 548.457 362.954C548.287 361.25 547.696 359.73 547.241 358.911C546.741 358.011 547.065 356.876 547.966 356.376Z" fill="#6529F7"/>
<path d="M327.202 360.721L331.506 347.914H328.586L325.657 357.961H325.595L322.666 347.914H319.666L323.971 360.721H327.202ZM339.822 360.721H342.671L338.216 347.914H335.065L330.619 360.721H333.37L334.346 357.615H338.846L339.822 360.721ZM336.565 350.364H336.627L338.269 355.609H334.923L336.565 350.364ZM352.266 358.502H346.665V347.914H343.985V360.721H352.266V358.502ZM356.535 360.721V347.914H353.854V360.721H356.535ZM358.665 347.914V360.721H363.555C367.398 360.721 369.661 358.334 369.661 354.269C369.661 350.204 367.398 347.914 363.555 347.914H358.665ZM361.345 350.124H363.236C365.596 350.124 366.928 351.597 366.928 354.278C366.928 357.047 365.632 358.502 363.236 358.502H361.345V350.124Z" fill="#9D9DA8"/>
<path d="M160.534 358.923C163.395 358.923 165.392 357.274 165.667 354.671H163.29C163.032 356.054 161.989 356.902 160.542 356.902C158.674 356.902 157.502 355.366 157.502 352.877C157.502 350.419 158.691 348.875 160.534 348.875C161.956 348.875 163.056 349.813 163.282 351.244H165.659C165.473 348.633 163.339 346.854 160.534 346.854C157.155 346.854 155.013 349.126 155.013 352.885C155.013 356.652 157.139 358.923 160.534 358.923ZM174.413 358.721H177.008L172.95 347.056H170.081L166.031 358.721H168.537L169.426 355.892H173.524L174.413 358.721ZM171.447 349.287H171.503L172.999 354.065H169.951L171.447 349.287ZM180.646 348.964H182.723C183.936 348.964 184.696 349.692 184.696 350.823C184.696 351.979 183.976 352.683 182.748 352.683H180.646V348.964ZM180.646 354.453H182.602L184.777 358.721H187.541L185.084 354.089C186.426 353.564 187.202 352.27 187.202 350.775C187.202 348.471 185.666 347.056 182.982 347.056H178.205V358.721H180.646V354.453ZM188.81 347.056V358.721H193.265C196.765 358.721 198.826 356.547 198.826 352.844C198.826 349.142 196.765 347.056 193.265 347.056H188.81ZM191.252 349.069H192.974C195.124 349.069 196.336 350.411 196.336 352.852C196.336 355.374 195.156 356.7 192.974 356.7H191.252V349.069ZM213.821 358.721V347.056H211.38V351.793H206.126V347.056H203.684V358.721H206.126V353.806H211.38V358.721H213.821ZM221.024 346.854C217.564 346.854 215.398 349.174 215.398 352.893C215.398 356.603 217.564 358.923 221.024 358.923C224.476 358.923 226.65 356.603 226.65 352.893C226.65 349.174 224.476 346.854 221.024 346.854ZM221.024 348.891C222.932 348.891 224.152 350.443 224.152 352.893C224.152 355.334 222.932 356.878 221.024 356.878C219.108 356.878 217.888 355.334 217.888 352.893C217.888 350.443 219.116 348.891 221.024 348.891ZM235.769 356.7H230.668V347.056H228.227V358.721H235.769V356.7ZM237.216 347.056V358.721H241.67C245.17 358.721 247.231 356.547 247.231 352.844C247.231 349.142 245.17 347.056 241.67 347.056H237.216ZM239.657 349.069H241.379C243.529 349.069 244.742 350.411 244.742 352.852C244.742 355.374 243.561 356.7 241.379 356.7H239.657V349.069ZM256.536 356.7H251.249V353.758H256.237V351.882H251.249V349.069H256.536V347.056H248.808V358.721H256.536V356.7ZM260.739 348.964H262.817C264.029 348.964 264.789 349.692 264.789 350.823C264.789 351.979 264.07 352.683 262.841 352.683H260.739V348.964ZM260.739 354.453H262.695L264.87 358.721H267.635L265.177 354.089C266.519 353.564 267.295 352.27 267.295 350.775C267.295 348.471 265.759 347.056 263.075 347.056H258.298V358.721H260.739V354.453Z" fill="#9D9DA8"/>
<path d="M421.784 360.943C424.926 360.943 427.118 359.132 427.42 356.275H424.811C424.527 357.792 423.382 358.724 421.793 358.724C419.743 358.724 418.456 357.038 418.456 354.304C418.456 351.606 419.761 349.911 421.784 349.911C423.346 349.911 424.553 350.941 424.802 352.511H427.411C427.207 349.645 424.864 347.692 421.784 347.692C418.074 347.692 415.722 350.186 415.722 354.313C415.722 358.449 418.057 360.943 421.784 360.943ZM435.621 360.721L439.925 347.914H437.005L434.077 357.961H434.014L431.086 347.914H428.086L432.39 360.721H435.621ZM447.958 360.721L452.262 347.914H449.342L446.413 357.961H446.351L443.422 347.914H440.422L444.727 360.721H447.958Z" fill="#9D9DA8"/>
<path d="M326.083 378.555L326.785 377.339L324.805 376.229L326.785 375.102L326.092 373.877L324.211 375.022L324.308 372.937H322.702L322.799 375.013L320.909 373.877L320.226 375.102L322.196 376.22L320.226 377.33L320.909 378.555L322.799 377.419L322.693 379.504H324.308L324.211 377.419L326.083 378.555ZM334.515 378.555L335.216 377.339L333.237 376.229L335.216 375.102L334.524 373.877L332.642 375.022L332.74 372.937H331.133L331.231 375.013L329.341 373.877L328.657 375.102L330.628 376.22L328.657 377.33L329.341 378.555L331.231 377.419L331.125 379.504H332.74L332.642 377.419L334.515 378.555ZM342.015 388.495L346.559 372.937H344.171L339.618 388.495H342.015ZM356.828 378.555L357.529 377.339L355.549 376.229L357.529 375.102L356.836 373.877L354.955 375.022L355.052 372.937H353.446L353.544 375.013L351.653 373.877L350.97 375.102L352.94 376.22L350.97 377.33L351.653 378.555L353.544 377.419L353.437 379.504H355.052L354.955 377.419L356.828 378.555ZM365.259 378.555L365.96 377.339L363.981 376.229L365.96 375.102L365.268 373.877L363.386 375.022L363.484 372.937H361.878L361.975 375.013L360.085 373.877L359.401 375.102L361.372 376.22L359.401 377.33L360.085 378.555L361.975 377.419L361.869 379.504H363.484L363.386 377.419L365.259 378.555Z" fill="#696974"/>
<path d="M154.657 380.308C154.657 382.539 156.217 383.986 158.602 383.986C161.1 383.986 162.587 382.572 162.587 380.09V372.079H160.146V380.074C160.146 381.246 159.596 381.876 158.577 381.876C157.656 381.876 157.042 381.254 157.025 380.308H154.657ZM168.399 383.93C171.018 383.93 172.692 382.256 172.692 379.403C172.692 376.59 170.994 374.892 168.399 374.892C165.804 374.892 164.107 376.598 164.107 379.403C164.107 382.248 165.78 383.93 168.399 383.93ZM168.399 382.127C167.235 382.127 166.499 381.149 166.499 379.411C166.499 377.689 167.251 376.695 168.399 376.695C169.547 376.695 170.291 377.689 170.291 379.411C170.291 381.149 169.555 382.127 168.399 382.127ZM173.969 383.744H176.329V378.796C176.329 377.657 176.984 376.873 178.1 376.873C179.175 376.873 179.724 377.552 179.724 378.667V383.744H182.085V378.166C182.085 376.161 180.985 374.916 179.062 374.916C177.744 374.916 176.798 375.531 176.337 376.622H176.289V372.079H173.969V383.744ZM183.596 383.744H185.957V378.772C185.957 377.649 186.628 376.873 187.687 376.873C188.746 376.873 189.279 377.519 189.279 378.651V383.744H191.64V378.158C191.64 376.129 190.557 374.916 188.633 374.916C187.299 374.916 186.385 375.547 185.925 376.622H185.876V375.078H183.596V383.744ZM196.619 372.079V383.744H201.073C204.574 383.744 206.635 381.569 206.635 377.867C206.635 374.164 204.574 372.079 201.073 372.079H196.619ZM199.061 374.092H200.782C202.933 374.092 204.145 375.434 204.145 377.875C204.145 380.397 202.965 381.723 200.782 381.723H199.061V374.092ZM211.986 383.93C214.606 383.93 216.279 382.256 216.279 379.403C216.279 376.59 214.581 374.892 211.986 374.892C209.392 374.892 207.694 376.598 207.694 379.403C207.694 382.248 209.367 383.93 211.986 383.93ZM211.986 382.127C210.822 382.127 210.087 381.149 210.087 379.411C210.087 377.689 210.839 376.695 211.986 376.695C213.134 376.695 213.878 377.689 213.878 379.411C213.878 381.149 213.142 382.127 211.986 382.127ZM221.388 376.638C222.439 376.638 223.158 377.398 223.207 378.505H219.529C219.609 377.422 220.353 376.638 221.388 376.638ZM223.239 381.092C223.021 381.755 222.358 382.183 221.493 382.183C220.288 382.183 219.504 381.335 219.504 380.098V379.952H225.478V379.233C225.478 376.598 223.886 374.892 221.364 374.892C218.801 374.892 217.184 376.687 217.184 379.451C217.184 382.224 218.785 383.93 221.452 383.93C223.595 383.93 225.147 382.79 225.405 381.092H223.239Z" fill="#696974"/>
<path d="M421.722 378.555L422.423 377.339L420.444 376.229L422.423 375.102L421.731 373.877L419.849 375.022L419.947 372.937H418.341L418.438 375.013L416.548 373.877L415.864 375.102L417.835 376.22L415.864 377.33L416.548 378.555L418.438 377.419L418.332 379.504H419.947L419.849 377.419L421.722 378.555ZM430.154 378.555L430.855 377.339L428.876 376.229L430.855 375.102L430.162 373.877L428.281 375.022L428.379 372.937H426.772L426.87 375.013L424.979 373.877L424.296 375.102L426.266 376.22L424.296 377.33L424.979 378.555L426.87 377.419L426.763 379.504H428.379L428.281 377.419L430.154 378.555ZM438.585 378.555L439.286 377.339L437.307 376.229L439.286 375.102L438.594 373.877L436.712 375.022L436.81 372.937H435.204L435.301 375.013L433.411 373.877L432.727 375.102L434.698 376.22L432.727 377.33L433.411 378.555L435.301 377.419L435.195 379.504H436.81L436.712 377.419L438.585 378.555Z" fill="#696974"/>
<path d="M155.688 148.79V165.139H159.109V159.984H162.169C165.613 159.984 168.004 157.741 168.004 154.387C168.004 151.022 165.692 148.79 162.339 148.79H155.688ZM159.109 151.498H161.432C163.392 151.498 164.525 152.54 164.525 154.398C164.525 156.268 163.381 157.31 161.421 157.31H159.109V151.498ZM184.24 165.139V148.79H180.818V155.429H173.453V148.79H170.032V165.139H173.453V158.251H180.818V165.139H184.24ZM195.026 165.139V159.032L200.725 148.79H197.054L193.383 155.769H193.304L189.644 148.79H185.917L191.604 159.032V165.139H195.026ZM201.314 160.471C201.416 163.553 204.011 165.423 207.908 165.423C211.999 165.423 214.503 163.395 214.503 160.199C214.503 157.718 212.996 156.325 209.54 155.633L207.806 155.282C205.88 154.897 205.087 154.274 205.087 153.265C205.087 152.064 206.22 151.271 207.908 151.271C209.631 151.271 210.843 152.11 210.956 153.503H214.185C214.129 150.501 211.727 148.507 207.908 148.507C204.271 148.507 201.666 150.49 201.666 153.481C201.666 155.917 203.263 157.48 206.526 158.126L208.248 158.466C210.299 158.885 211.07 159.497 211.07 160.573C211.07 161.774 209.823 162.658 207.999 162.658C206.141 162.658 204.759 161.842 204.543 160.471H201.314ZM220.02 165.139V148.79H216.599V165.139H220.02ZM229.968 165.423C233.979 165.423 236.778 163.111 237.163 159.463H233.832C233.469 161.4 232.008 162.59 229.98 162.59C227.362 162.59 225.719 160.437 225.719 156.948C225.719 153.503 227.385 151.339 229.968 151.339C231.962 151.339 233.503 152.654 233.821 154.659H237.152C236.891 150.999 233.9 148.507 229.968 148.507C225.232 148.507 222.23 151.691 222.23 156.959C222.23 162.239 225.21 165.423 229.968 165.423ZM249.422 165.139H253.059L247.371 148.79H243.349L237.673 165.139H241.185L242.431 161.174H248.176L249.422 165.139ZM245.264 151.917H245.343L247.439 158.613H243.168L245.264 151.917ZM265.307 162.307H258.158V148.79H254.736V165.139H265.307V162.307Z" fill="#9D9DA8"/>
<path d="M168.459 296L169.841 293.567L165.539 291.115L169.86 288.624L168.459 286.191L164.313 288.721L164.488 284.108H161.355L161.53 288.721L157.384 286.191L156.021 288.624L160.284 291.095L156.002 293.548L157.364 296L161.53 293.47L161.355 298.083H164.488L164.313 293.47L168.459 296ZM186.054 296L187.436 293.567L183.135 291.115L187.456 288.624L186.054 286.191L181.908 288.721L182.084 284.108H178.95L179.125 288.721L174.979 286.191L173.617 288.624L177.879 291.095L173.597 293.548L174.96 296L179.125 293.47L178.95 298.083H182.084L181.908 293.47L186.054 296ZM203.65 296L205.032 293.567L200.73 291.115L205.051 288.624L203.65 286.191L199.504 288.721L199.679 284.108H196.545L196.72 288.721L192.575 286.191L191.212 288.624L195.475 291.095L191.193 293.548L192.555 296L196.72 293.47L196.545 298.083H199.679L199.504 293.47L203.65 296ZM221.245 296L222.627 293.567L218.325 291.115L222.646 288.624L221.245 286.191L217.099 288.721L217.274 284.108H214.141L214.316 288.721L210.17 286.191L208.808 288.624L213.07 291.095L208.788 293.548L210.151 296L214.316 293.47L214.141 298.083H217.274L217.099 293.47L221.245 296ZM246.431 296L247.813 293.567L243.512 291.115L247.833 288.624L246.431 286.191L242.285 288.721L242.461 284.108H239.327L239.502 288.721L235.356 286.191L233.994 288.624L238.256 291.095L233.974 293.548L235.337 296L239.502 293.47L239.327 298.083H242.461L242.285 293.47L246.431 296ZM264.027 296L265.409 293.567L261.107 291.115L265.428 288.624L264.027 286.191L259.881 288.721L260.056 284.108H256.922L257.097 288.721L252.952 286.191L251.589 288.624L255.852 291.095L251.57 293.548L252.932 296L257.097 293.47L256.922 298.083H260.056L259.881 293.47L264.027 296ZM281.622 296L283.004 293.567L278.702 291.115L283.023 288.624L281.622 286.191L277.476 288.721L277.651 284.108H274.518L274.693 288.721L270.547 286.191L269.185 288.624L273.447 291.095L269.165 293.548L270.528 296L274.693 293.47L274.518 298.083H277.651L277.476 293.47L281.622 296ZM299.217 296L300.599 293.567L296.298 291.115L300.619 288.624L299.217 286.191L295.072 288.721L295.247 284.108H292.113L292.288 288.721L288.142 286.191L286.78 288.624L291.043 291.095L286.76 293.548L288.123 296L292.288 293.47L292.113 298.083H295.247L295.072 293.47L299.217 296ZM324.404 296L325.786 293.567L321.484 291.115L325.805 288.624L324.404 286.191L320.258 288.721L320.433 284.108H317.299L317.474 288.721L313.329 286.191L311.966 288.624L316.229 291.095L311.947 293.548L313.309 296L317.474 293.47L317.299 298.083H320.433L320.258 293.47L324.404 296ZM341.999 296L343.381 293.567L339.079 291.115L343.4 288.624L341.999 286.191L337.853 288.721L338.028 284.108H334.895L335.07 288.721L330.924 286.191L329.562 288.624L333.824 291.095L329.542 293.548L330.905 296L335.07 293.47L334.895 298.083H338.028L337.853 293.47L341.999 296ZM359.594 296L360.976 293.567L356.675 291.115L360.996 288.624L359.594 286.191L355.449 288.721L355.624 284.108H352.49L352.665 288.721L348.519 286.191L347.157 288.624L351.42 291.095L347.137 293.548L348.5 296L352.665 293.47L352.49 298.083H355.624L355.449 293.47L359.594 296ZM377.19 296L378.572 293.567L374.27 291.115L378.591 288.624L377.19 286.191L373.044 288.721L373.219 284.108H370.085L370.261 288.721L366.115 286.191L364.752 288.624L369.015 291.095L364.733 293.548L366.095 296L370.261 293.47L370.085 298.083H373.219L373.044 293.47L377.19 296ZM402.376 296L403.758 293.567L399.456 291.115L403.777 288.624L402.376 286.191L398.23 288.721L398.405 284.108H395.272L395.447 288.721L391.301 286.191L389.939 288.624L394.201 291.095L389.919 293.548L391.282 296L395.447 293.47L395.272 298.083H398.405L398.23 293.47L402.376 296ZM419.971 296L421.353 293.567L417.052 291.115L421.373 288.624L419.971 286.191L415.826 288.721L416.001 284.108H412.867L413.042 288.721L408.896 286.191L407.534 288.624L411.797 291.095L407.514 293.548L408.877 296L413.042 293.47L412.867 298.083H416.001L415.826 293.47L419.971 296ZM437.567 296L438.949 293.567L434.647 291.115L438.968 288.624L437.567 286.191L433.421 288.721L433.596 284.108H430.462L430.638 288.721L426.492 286.191L425.129 288.624L429.392 291.095L425.11 293.548L426.472 296L430.638 293.47L430.462 298.083H433.596L433.421 293.47L437.567 296ZM455.162 296L456.544 293.567L452.242 291.115L456.563 288.624L455.162 286.191L451.016 288.721L451.191 284.108H448.058L448.233 288.721L444.087 286.191L442.725 288.624L446.987 291.095L442.705 293.548L444.068 296L448.233 293.47L448.058 298.083H451.191L451.016 293.47L455.162 296Z" fill="#696974"/>
<g filter="url(#filter2_d_0_310)">
<rect x="110" y="762.242" width="314.242" height="498.536" rx="17.4259" transform="rotate(-89.9153 110 762.242)" fill="url(#paint4_linear_0_310)"/>
</g>
<path d="M519.05 516.494H511.135L516.082 485.553H523.998L519.05 516.494ZM504.477 485.553L496.931 506.835L496.038 502.252L496.039 502.254L493.376 488.339C493.376 488.339 493.054 485.553 489.621 485.553H477.146L477 486.077C477 486.077 480.815 486.885 485.279 489.613L492.156 516.495H500.403L512.995 485.553H504.477ZM566.732 516.494H574L567.663 485.552H561.301C558.363 485.552 557.647 487.858 557.647 487.858L545.843 516.494H554.093L555.743 511.898H565.805L566.732 516.494ZM558.023 505.549L562.182 493.97L564.521 505.549H558.023ZM546.461 492.994L547.591 486.349C547.591 486.349 544.105 485 540.472 485C536.544 485 527.217 486.747 527.217 495.243C527.217 503.237 538.164 503.336 538.164 507.535C538.164 511.734 528.345 510.981 525.104 508.334L523.927 515.281C523.927 515.281 527.461 517.028 532.861 517.028C538.263 517.028 546.411 514.182 546.411 506.435C546.411 498.39 535.365 497.641 535.365 494.143C535.366 490.645 543.074 491.094 546.461 492.994Z" fill="white"/>
<g filter="url(#filter3_i_0_310)">
<rect x="154.974" y="545.2" width="66.1808" height="47.341" rx="8.45386" transform="rotate(0.0846841 154.974 545.2)" fill="url(#paint5_linear_0_310)"/>
<rect x="154.974" y="545.2" width="66.1808" height="47.341" rx="8.45386" transform="rotate(0.0846841 154.974 545.2)" fill="#FFC700" fill-opacity="0.27"/>
</g>
<path d="M154.872 561.586L177.377 561.62C178.808 557.246 182.828 548.235 187.456 547.182C189.174 547.786 193.185 549.96 195.493 553.818M154.85 576.762L177.355 576.795C177.343 584.311 184.041 589.813 187.391 591.624C193.026 589.802 197.38 581 198.853 576.827L221.107 576.86M221.124 565.298L198.871 565.265C197.868 563.376 196.466 559.022 198.883 556.713" stroke="url(#paint6_linear_0_310)" stroke-width="0.724616"/>
<path fill-rule="evenodd" clip-rule="evenodd" d="M568.866 689.787C569.768 689.293 570.899 689.624 571.393 690.525C574.41 696.035 578.511 710.415 571.382 724.904C570.928 725.827 569.813 726.207 568.89 725.753C567.967 725.299 567.588 724.183 568.042 723.26C574.492 710.15 570.737 697.079 568.127 692.314C567.634 691.412 567.964 690.28 568.866 689.787ZM561.809 692.962C562.727 692.499 563.846 692.868 564.309 693.786C566.662 698.447 569.924 710.431 564.273 721.691C563.811 722.61 562.693 722.981 561.774 722.52C560.855 722.059 560.484 720.94 560.945 720.021C565.885 710.177 563.02 699.496 560.985 695.463C560.522 694.545 560.891 693.426 561.809 692.962ZM555.177 697.028C556.087 696.55 557.212 696.901 557.69 697.812C558.645 699.634 559.729 702.734 560.042 706.342C560.357 709.965 559.902 714.217 557.632 718.212C557.125 719.106 555.988 719.419 555.094 718.911C554.2 718.404 553.887 717.267 554.395 716.373C556.198 713.199 556.601 709.751 556.333 706.664C556.063 703.56 555.125 700.937 554.392 699.541C553.915 698.63 554.266 697.505 555.177 697.028ZM547.687 700.929C548.587 700.431 549.72 700.757 550.218 701.656C550.89 702.87 551.651 704.874 551.873 707.134C552.096 709.406 551.785 712.102 550.086 714.473C549.487 715.309 548.324 715.501 547.489 714.902C546.653 714.304 546.461 713.141 547.06 712.305C548.074 710.889 548.334 709.186 548.168 707.498C548.001 705.796 547.413 704.278 546.96 703.46C546.462 702.56 546.788 701.427 547.687 700.929Z" fill="white"/>
<path opacity="0.6" d="M327.26 704.969L331.577 692.189L328.661 692.184L325.722 702.211L325.66 702.211L322.751 692.176L319.756 692.171L324.035 704.965L327.26 704.969ZM339.861 704.988L342.706 704.992L338.276 692.198L335.13 692.194L330.672 704.975L333.419 704.979L334.398 701.878L338.891 701.885L339.861 704.988ZM336.624 694.642L336.686 694.642L338.318 699.882L334.977 699.877L336.624 694.642ZM352.288 702.791L346.697 702.783L346.712 692.211L344.036 692.207L344.017 704.994L352.285 705.006L352.288 702.791ZM356.548 705.013L356.567 692.226L353.89 692.222L353.871 705.009L356.548 705.013ZM358.693 692.229L358.674 705.016L363.557 705.023C367.394 705.029 369.657 702.648 369.663 698.59C369.669 694.531 367.413 692.242 363.576 692.236L358.693 692.229ZM361.366 694.439L363.254 694.442C365.611 694.445 366.938 695.918 366.934 698.595C366.93 701.359 365.634 702.811 363.241 702.807L361.354 702.804L361.366 694.439Z" fill="white"/>
<path opacity="0.6" d="M160.851 702.925C163.709 702.929 165.705 701.286 165.983 698.687L163.61 698.684C163.35 700.064 162.307 700.91 160.862 700.907C158.998 700.905 157.83 699.369 157.834 696.883C157.837 694.43 159.026 692.89 160.866 692.893C162.287 692.895 163.383 693.833 163.607 695.262L165.98 695.265C165.798 692.658 163.67 690.879 160.869 690.875C157.495 690.87 155.353 693.135 155.348 696.888C155.342 700.649 157.461 702.92 160.851 702.925ZM174.71 702.744L177.301 702.748L173.266 691.095L170.401 691.091L166.34 702.731L168.842 702.735L169.734 699.912L173.826 699.918L174.71 702.744ZM171.762 693.32L171.818 693.321L173.304 698.093L170.261 698.088L171.762 693.32ZM180.947 693.011L183.021 693.014C184.232 693.016 184.99 693.744 184.988 694.874C184.986 696.028 184.267 696.729 183.04 696.727L180.942 696.724L180.947 693.011ZM180.939 698.491L182.892 698.494L185.057 702.759L187.817 702.763L185.371 698.135C186.711 697.612 187.488 696.322 187.49 694.829C187.493 692.529 185.962 691.114 183.282 691.11L178.512 691.103L178.495 702.749L180.933 702.753L180.939 698.491ZM189.102 691.118L189.084 702.765L193.532 702.772C197.027 702.777 199.088 700.609 199.093 696.912C199.099 693.216 197.044 691.13 193.549 691.125L189.102 691.118ZM191.536 693.132L193.255 693.134C195.402 693.137 196.611 694.479 196.607 696.917C196.604 699.435 195.423 700.757 193.244 700.753L191.525 700.751L191.536 693.132ZM214.057 702.802L214.074 691.155L211.636 691.152L211.629 695.881L206.383 695.874L206.39 691.144L203.953 691.14L203.935 702.787L206.373 702.791L206.38 697.883L211.626 697.891L211.619 702.798L214.057 702.802ZM221.266 690.964C217.811 690.959 215.645 693.272 215.639 696.985C215.634 700.69 217.793 703.009 221.248 703.014C224.694 703.02 226.869 700.706 226.874 697.002C226.88 693.289 224.712 690.969 221.266 690.964ZM221.263 692.998C223.167 693.001 224.384 694.552 224.38 696.998C224.377 699.435 223.156 700.975 221.251 700.972C219.338 700.97 218.121 699.426 218.125 696.989C218.129 694.543 219.358 692.995 221.263 692.998ZM235.973 700.817L230.88 700.809L230.894 691.18L228.457 691.177L228.439 702.823L235.97 702.834L235.973 700.817ZM237.432 691.19L237.415 702.837L241.862 702.843C245.357 702.848 247.418 700.68 247.423 696.984C247.429 693.287 245.374 691.202 241.879 691.196L237.432 691.19ZM239.866 693.203L241.585 693.206C243.732 693.209 244.941 694.551 244.937 696.988C244.934 699.506 243.753 700.828 241.574 700.825L239.855 700.822L239.866 693.203ZM256.708 700.847L251.429 700.839L251.433 697.902L256.413 697.909L256.416 696.036L251.436 696.029L251.44 693.22L256.719 693.228L256.722 691.218L249.006 691.207L248.989 702.854L256.705 702.865L256.708 700.847ZM260.916 693.129L262.99 693.132C264.201 693.134 264.959 693.862 264.957 694.992C264.955 696.146 264.236 696.847 263.009 696.845L260.91 696.842L260.916 693.129ZM260.908 698.61L262.861 698.613L265.026 702.877L267.786 702.881L265.339 698.253C266.68 697.73 267.457 696.44 267.459 694.947C267.462 692.647 265.931 691.232 263.251 691.228L258.481 691.221L258.464 702.868L260.902 702.871L260.908 698.61Z" fill="white"/>
<path opacity="0.6" d="M421.696 705.331C424.833 705.335 427.024 703.531 427.33 700.678L424.724 700.674C424.438 702.189 423.294 703.118 421.708 703.115C419.661 703.112 418.378 701.427 418.382 698.697C418.386 696.003 419.691 694.313 421.712 694.316C423.271 694.318 424.475 695.348 424.721 696.917L427.326 696.92C427.127 694.058 424.79 692.105 421.715 692.1C418.011 692.095 415.659 694.581 415.653 698.702C415.647 702.832 417.974 705.325 421.696 705.331ZM435.511 705.129L439.828 692.349L436.912 692.344L433.973 702.371L433.911 702.371L431.002 692.336L428.006 692.331L432.285 705.125L435.511 705.129ZM447.829 705.148L452.145 692.367L449.23 692.362L446.291 702.389L446.229 702.389L443.319 692.354L440.324 692.349L444.603 705.143L447.829 705.148Z" fill="white"/>
<path d="M326.119 722.773L326.821 721.56L324.846 720.449L326.824 719.327L326.135 718.103L324.254 719.243L324.355 717.161L322.751 717.158L322.845 719.232L320.96 718.095L320.275 719.317L322.241 720.437L320.272 721.541L320.953 722.765L322.842 721.634L322.733 723.716L324.345 723.718L324.251 721.636L326.119 722.773ZM334.538 722.785L335.239 721.572L333.265 720.462L335.243 719.339L334.553 718.115L332.673 719.256L332.773 717.173L331.17 717.171L331.264 719.245L329.378 718.108L328.694 719.329L330.66 720.449L328.691 721.554L329.371 722.778L331.26 721.646L331.151 723.728L332.764 723.731L332.669 721.648L334.538 722.785ZM342.011 732.721L346.571 717.194L344.187 717.19L339.618 732.718L342.011 732.721ZM356.815 722.818L357.517 721.605L355.543 720.495L357.521 719.372L356.831 718.148L354.951 719.289L355.051 717.206L353.448 717.204L353.542 719.278L351.656 718.141L350.972 719.362L352.938 720.482L350.969 721.587L351.649 722.811L353.538 721.679L353.429 723.761L355.042 723.764L354.947 721.681L356.815 722.818ZM365.234 722.831L365.936 721.618L363.961 720.507L365.939 719.385L365.25 718.161L363.369 719.301L363.47 717.219L361.866 717.216L361.96 719.29L360.075 718.153L359.39 719.375L361.356 720.494L359.387 721.599L360.068 722.823L361.957 721.692L361.847 723.774L363.46 723.776L363.366 721.694L365.234 722.831Z" fill="white"/>
<path d="M154.952 724.267C154.949 726.495 156.504 727.942 158.885 727.946C161.379 727.949 162.866 726.539 162.87 724.061L162.882 716.063L160.444 716.059L160.433 724.041C160.431 725.212 159.881 725.84 158.864 725.839C157.944 725.838 157.331 725.215 157.317 724.271L154.952 724.267ZM168.667 727.904C171.283 727.907 172.956 726.239 172.96 723.39C172.964 720.581 171.272 718.884 168.681 718.88C166.09 718.876 164.393 720.577 164.388 723.377C164.384 726.218 166.052 727.9 168.667 727.904ZM168.67 726.104C167.508 726.102 166.775 725.124 166.777 723.389C166.78 721.67 167.532 720.678 168.678 720.68C169.824 720.682 170.565 721.675 170.563 723.395C170.56 725.13 169.824 726.105 168.67 726.104ZM174.229 727.726L176.586 727.73L176.593 722.79C176.595 721.652 177.249 720.87 178.363 720.872C179.437 720.873 179.985 721.552 179.983 722.666L179.975 727.735L182.332 727.738L182.34 722.169C182.343 720.167 181.248 718.923 179.327 718.92C178.011 718.918 177.066 719.53 176.604 720.619L176.556 720.619L176.562 716.083L174.246 716.079L174.229 727.726ZM183.841 727.74L186.198 727.744L186.206 722.78C186.207 721.658 186.878 720.884 187.936 720.886C188.993 720.887 189.525 721.534 189.523 722.664L189.516 727.749L191.872 727.752L191.881 722.175C191.884 720.149 190.804 718.937 188.883 718.934C187.551 718.932 186.638 719.56 186.176 720.633L186.128 720.633L186.13 719.091L183.854 719.088L183.841 727.74ZM196.861 716.113L196.844 727.76L201.291 727.766C204.786 727.771 206.847 725.603 206.853 721.907C206.858 718.21 204.803 716.125 201.309 716.119L196.861 716.113ZM199.296 718.126L201.015 718.129C203.162 718.132 204.371 719.473 204.367 721.911C204.363 724.429 203.183 725.751 201.004 725.748L199.285 725.745L199.296 718.126ZM212.187 727.968C214.802 727.972 216.475 726.303 216.48 723.454C216.484 720.646 214.791 718.948 212.2 718.944C209.61 718.94 207.912 720.641 207.908 723.442C207.904 726.283 209.572 727.964 212.187 727.968ZM212.19 726.168C211.028 726.166 210.294 725.189 210.297 723.453C210.3 721.734 211.052 720.742 212.198 720.744C213.344 720.746 214.085 721.74 214.082 723.459C214.08 725.194 213.344 726.17 212.19 726.168ZM221.585 720.702C222.634 720.703 223.351 721.463 223.398 722.569L219.725 722.563C219.808 721.482 220.551 720.7 221.585 720.702ZM223.426 725.151C223.207 725.813 222.545 726.24 221.681 726.238C220.479 726.237 219.697 725.388 219.699 724.153L219.699 724.008L225.664 724.017L225.665 723.298C225.669 720.667 224.081 718.962 221.563 718.958C219.004 718.954 217.388 720.744 217.383 723.504C217.379 726.272 218.975 727.978 221.638 727.982C223.777 727.985 225.329 726.849 225.589 725.155L223.426 725.151Z" fill="white"/>
<path d="M421.607 722.915L422.309 721.702L420.335 720.591L422.312 719.469L421.623 718.245L419.743 719.385L419.843 717.303L418.239 717.301L418.334 719.374L416.448 718.237L415.764 719.459L417.729 720.579L415.76 721.683L416.441 722.907L418.33 721.776L418.221 723.858L419.834 723.86L419.739 721.778L421.607 722.915ZM430.026 722.927L430.728 721.714L428.753 720.604L430.731 719.481L430.042 718.257L428.161 719.398L428.262 717.315L426.658 717.313L426.752 719.387L424.866 718.25L424.182 719.472L426.148 720.591L424.179 721.696L424.86 722.92L426.749 721.788L426.639 723.871L428.252 723.873L428.158 721.79L430.026 722.927ZM438.444 722.94L439.146 721.727L437.172 720.616L439.149 719.494L438.46 718.27L436.58 719.41L436.68 717.328L435.076 717.325L435.171 719.399L433.285 718.262L432.601 719.484L434.566 720.603L432.597 721.708L433.278 722.932L435.167 721.801L435.058 723.883L436.671 723.885L436.576 721.803L438.444 722.94Z" fill="white"/>
<path d="M164.865 509.458L170.376 493.142L166.654 493.136L162.902 505.937L162.823 505.937L159.109 493.125L155.285 493.12L160.747 509.452L164.865 509.458ZM175.442 509.474L175.467 493.149L172.05 493.144L172.026 509.468L175.442 509.474ZM181.594 495.828L184.501 495.833C186.198 495.835 187.26 496.855 187.258 498.439C187.255 500.056 186.247 501.039 184.528 501.036L181.586 501.032L181.594 495.828ZM181.583 503.51L184.32 503.514L187.355 509.491L191.223 509.497L187.794 503.01C189.673 502.277 190.762 500.469 190.765 498.376C190.77 495.152 188.623 493.169 184.867 493.163L178.182 493.153L178.157 509.478L181.574 509.483L181.583 503.51ZM200.319 509.51L200.339 496.003L205.067 496.01L205.072 493.193L192.209 493.174L192.205 495.991L196.922 495.998L196.902 509.505L200.319 509.51ZM210.377 493.201L206.961 493.196L206.945 503.751C206.94 507.348 209.595 509.807 213.78 509.813C217.955 509.819 220.617 507.368 220.622 503.771L220.638 493.216L217.221 493.211L217.206 503.426C217.203 505.519 215.968 506.886 213.785 506.883C211.59 506.88 210.359 505.509 210.362 503.416L210.377 493.201ZM233.691 509.56L237.322 509.565L231.667 493.233L227.651 493.227L221.96 509.542L225.467 509.547L226.717 505.59L232.452 505.598L233.691 509.56ZM229.559 496.352L229.638 496.352L231.721 503.041L227.456 503.034L229.559 496.352ZM249.555 506.755L242.417 506.744L242.437 493.248L239.021 493.243L238.996 509.567L249.551 509.583L249.555 506.755Z" fill="white"/>
<path d="M168.859 640.145L170.243 637.718L165.951 635.263L170.269 632.782L168.874 630.351L164.731 632.871L164.912 628.265L161.784 628.261L161.952 632.867L157.816 630.334L156.452 632.761L160.704 635.236L156.425 637.678L157.782 640.129L161.945 637.608L161.763 642.214L164.892 642.219L164.724 637.613L168.859 640.145ZM186.427 640.171L187.811 637.744L183.52 635.289L187.837 632.808L186.442 630.376L182.299 632.897L182.48 628.291L179.352 628.287L179.52 632.893L175.384 630.36L174.02 632.787L178.272 635.262L173.993 637.704L175.35 640.155L179.513 637.634L179.331 642.24L182.46 642.245L182.292 637.639L186.427 640.171ZM203.995 640.197L205.379 637.77L201.088 635.315L205.406 632.834L204.01 630.402L199.867 632.923L200.048 628.317L196.92 628.313L197.088 632.919L192.952 630.386L191.588 632.813L195.84 635.288L191.561 637.73L192.918 640.181L197.081 637.66L196.899 642.266L200.028 642.271L199.86 637.665L203.995 640.197ZM221.563 640.223L222.947 637.796L218.656 635.341L222.974 632.86L221.578 630.428L217.435 632.949L217.617 628.343L214.488 628.339L214.656 632.945L210.52 630.412L209.156 632.839L213.409 635.314L209.13 637.756L210.486 640.207L214.649 637.686L214.467 642.292L217.596 642.297L217.428 637.69L221.563 640.223ZM246.711 640.26L248.094 637.833L243.803 635.378L248.121 632.897L246.725 630.466L242.582 632.986L242.764 628.38L239.635 628.376L239.803 632.982L235.667 630.449L234.303 632.876L238.556 635.351L234.277 637.793L235.633 640.244L239.796 637.724L239.614 642.329L242.743 642.334L242.575 637.728L246.711 640.26ZM264.279 640.286L265.662 637.859L261.371 635.404L265.689 632.923L264.293 630.492L260.15 633.012L260.332 628.406L257.203 628.402L257.371 633.008L253.235 630.475L251.871 632.902L256.124 635.377L251.845 637.819L253.201 640.27L257.364 637.75L257.182 642.355L260.311 642.36L260.143 637.754L264.279 640.286ZM281.847 640.312L283.23 637.885L278.939 635.43L283.257 632.949L281.861 630.518L277.718 633.038L277.9 628.432L274.771 628.428L274.939 633.034L270.803 630.501L269.439 632.928L273.692 635.403L269.413 637.845L270.77 640.296L274.932 637.775L274.75 642.381L277.879 642.386L277.711 637.78L281.847 640.312ZM299.415 640.338L300.798 637.911L296.507 635.456L300.825 632.975L299.429 630.543L295.286 633.064L295.468 628.458L292.339 628.454L292.507 633.06L288.371 630.527L287.008 632.954L291.26 635.429L286.981 637.871L288.338 640.322L292.5 637.801L292.318 642.407L295.447 642.412L295.279 637.806L299.415 640.338ZM324.562 640.375L325.945 637.948L321.654 635.493L325.972 633.012L324.576 630.581L320.433 633.101L320.615 628.495L317.486 628.491L317.654 633.097L313.519 630.564L312.155 632.991L316.407 635.466L312.128 637.908L313.485 640.359L317.647 637.839L317.466 642.444L320.594 642.449L320.426 637.843L324.562 640.375ZM342.13 640.401L343.513 637.974L339.222 635.519L343.54 633.038L342.144 630.607L338.001 633.127L338.183 628.521L335.054 628.517L335.222 633.123L331.087 630.59L329.723 633.017L333.975 635.492L329.696 637.934L331.053 640.385L335.215 637.865L335.034 642.47L338.162 642.475L337.994 637.869L342.13 640.401ZM359.698 640.427L361.081 638L356.79 635.545L361.108 633.064L359.712 630.633L355.569 633.153L355.751 628.547L352.622 628.543L352.79 633.149L348.655 630.616L347.291 633.043L351.543 635.518L347.264 637.96L348.621 640.411L352.783 637.891L352.602 642.496L355.73 642.501L355.562 637.895L359.698 640.427ZM377.266 640.453L378.649 638.026L374.358 635.571L378.676 633.09L377.281 630.659L373.137 633.179L373.319 628.573L370.19 628.569L370.358 633.175L366.223 630.642L364.859 633.069L369.111 635.544L364.832 637.986L366.189 640.437L370.351 637.917L370.17 642.522L373.299 642.527L373.13 637.921L377.266 640.453ZM402.413 640.49L403.797 638.063L399.505 635.608L403.823 633.127L402.428 630.696L398.285 633.216L398.466 628.61L395.338 628.606L395.506 633.212L391.37 630.679L390.006 633.107L394.258 635.581L389.979 638.023L391.336 640.474L395.499 637.954L395.317 642.559L398.446 642.564L398.278 637.958L402.413 640.49ZM419.981 640.516L421.365 638.089L417.073 635.634L421.391 633.153L419.996 630.722L415.853 633.242L416.034 628.636L412.906 628.632L413.074 633.238L408.938 630.705L407.574 633.133L411.826 635.607L407.547 638.049L408.904 640.5L413.067 637.98L412.885 642.585L416.014 642.59L415.846 637.984L419.981 640.516ZM437.549 640.542L438.933 638.115L434.641 635.66L438.959 633.179L437.564 630.748L433.421 633.268L433.602 628.662L430.474 628.658L430.642 633.264L426.506 630.731L425.142 633.158L429.394 635.633L425.115 638.075L426.472 640.526L430.635 638.006L430.453 642.611L433.582 642.616L433.414 638.01L437.549 640.542ZM455.117 640.568L456.501 638.141L452.21 635.686L456.527 633.205L455.132 630.774L450.989 633.294L451.17 628.688L448.042 628.684L448.21 633.29L444.074 630.757L442.71 633.184L446.962 635.659L442.683 638.101L444.04 640.552L448.203 638.032L448.021 642.637L451.15 642.642L450.982 638.036L455.117 640.568Z" fill="white"/>
<defs>
<filter id="filter0_d_0_310" x="0.896378" y="0.789168" width="716.897" height="532.316" filterUnits="userSpaceOnUse" color-interpolation-filters="sRGB">
<feFlood flood-opacity="0" result="BackgroundImageFix"/>
<feColorMatrix in="SourceAlpha" type="matrix" values="0 0 0 0 0 0 0 0 0 0 0 0 0 0 0 0 0 0 127 0" result="hardAlpha"/>
<feOffset dy="5.88071"/>
<feGaussianBlur stdDeviation="54.3965"/>
<feComposite in2="hardAlpha" operator="out"/>
<feColorMatrix type="matrix" values="0 0 0 0 0.916667 0 0 0 0 0.916667 0 0 0 0 1 0 0 0 1 0"/>
<feBlend mode="normal" in2="BackgroundImageFix" result="effect1_dropShadow_0_310"/>
<feBlend mode="normal" in="SourceGraphic" in2="effect1_dropShadow_0_310" result="shape"/>
</filter>
<filter id="filter1_i_0_310" x="154.404" y="200.986" width="66.2844" height="47.4152" filterUnits="userSpaceOnUse" color-interpolation-filters="sRGB">
<feFlood flood-opacity="0" result="BackgroundImageFix"/>
<feBlend mode="normal" in="SourceGraphic" in2="BackgroundImageFix" result="shape"/>
<feColorMatrix in="SourceAlpha" type="matrix" values="0 0 0 0 0 0 0 0 0 0 0 0 0 0 0 0 0 0 127 0" result="hardAlpha"/>
<feOffset dx="-0.725742" dy="-0.725742"/>
<feComposite in2="hardAlpha" operator="arithmetic" k2="-1" k3="1"/>
<feColorMatrix type="matrix" values="0 0 0 0 0 0 0 0 0 0 0 0 0 0 0 0 0 0 0.25 0"/>
<feBlend mode="normal" in2="shape" result="effect1_innerShadow_0_310"/>
</filter>
<filter id="filter2_d_0_310" x="21.3355" y="421.226" width="676.329" height="492.308" filterUnits="userSpaceOnUse" color-interpolation-filters="sRGB">
<feFlood flood-opacity="0" result="BackgroundImageFix"/>
<feColorMatrix in="SourceAlpha" type="matrix" values="0 0 0 0 0 0 0 0 0 0 0 0 0 0 0 0 0 0 127 0" result="hardAlpha"/>
<feOffset dy="61.8907"/>
<feGaussianBlur stdDeviation="44.3451"/>
<feComposite in2="hardAlpha" operator="out"/>
<feColorMatrix type="matrix" values="0 0 0 0 0 0 0 0 0 0 0 0 0 0 0 0 0 0 0.1 0"/>
<feBlend mode="normal" in2="BackgroundImageFix" result="effect1_dropShadow_0_310"/>
<feBlend mode="normal" in="SourceGraphic" in2="effect1_dropShadow_0_310" result="shape"/>
</filter>
<filter id="filter3_i_0_310" x="154.916" y="545.213" width="66.2257" height="47.4138" filterUnits="userSpaceOnUse" color-interpolation-filters="sRGB">
<feFlood flood-opacity="0" result="BackgroundImageFix"/>
<feBlend mode="normal" in="SourceGraphic" in2="BackgroundImageFix" result="shape"/>
<feColorMatrix in="SourceAlpha" type="matrix" values="0 0 0 0 0 0 0 0 0 0 0 0 0 0 0 0 0 0 127 0" result="hardAlpha"/>
<feOffset dx="-0.724616" dy="-0.724616"/>
<feComposite in2="hardAlpha" operator="arithmetic" k2="-1" k3="1"/>
<feColorMatrix type="matrix" values="0 0 0 0 0 0 0 0 0 0 0 0 0 0 0 0 0 0 0.25 0"/>
<feBlend mode="normal" in2="shape" result="effect1_innerShadow_0_310"/>
</filter>
<linearGradient id="paint0_linear_0_310" x1="109.689" y1="418.432" x2="465.269" y2="444.812" gradientUnits="userSpaceOnUse">
<stop stop-color="white"/>
<stop offset="1" stop-color="white"/>
</linearGradient>
<linearGradient id="paint1_linear_0_310" x1="481" y1="141" x2="578" y2="173" gradientUnits="userSpaceOnUse">
<stop stop-color="#151B62"/>
<stop offset="1" stop-color="#00289D"/>
</linearGradient>
<linearGradient id="paint2_linear_0_310" x1="154.404" y1="200.986" x2="213.794" y2="248.401" gradientUnits="userSpaceOnUse">
<stop stop-color="#ABABAB"/>
<stop offset="0.3125" stop-color="white"/>
<stop offset="0.630208" stop-color="#BDBDBD"/>
<stop offset="1" stop-color="#5E5E5E"/>
</linearGradient>
<linearGradient id="paint3_linear_0_310" x1="156.824" y1="203.647" x2="216.213" y2="246.224" gradientUnits="userSpaceOnUse">
<stop stop-color="#7D7D7D"/>
<stop offset="0.494792" stop-color="white"/>
<stop offset="1" stop-color="#1C1C1C"/>
</linearGradient>
<linearGradient id="paint4_linear_0_310" x1="110" y1="762.242" x2="465.028" y2="788.581" gradientUnits="userSpaceOnUse">
<stop stop-color="#514FFF"/>
<stop offset="1" stop-color="#6724F5"/>
</linearGradient>
<linearGradient id="paint5_linear_0_310" x1="154.974" y1="545.2" x2="214.271" y2="592.541" gradientUnits="userSpaceOnUse">
<stop stop-color="#ABABAB"/>
<stop offset="0.3125" stop-color="white"/>
<stop offset="0.630208" stop-color="#BDBDBD"/>
<stop offset="1" stop-color="#5E5E5E"/>
</linearGradient>
<linearGradient id="paint6_linear_0_310" x1="157.384" y1="547.862" x2="216.618" y2="590.46" gradientUnits="userSpaceOnUse">
<stop stop-color="#7D7D7D"/>
<stop offset="0.494792" stop-color="white"/>
<stop offset="1" stop-color="#1C1C1C"/>
</linearGradient>
</defs>
</svg>
